<?xml version="1.0" encoding="UTF-8" standalone="no"?>
<!-- Created with Inkscape (http://www.inkscape.org/) -->

<svg
   width="1080"
   height="1080"
   viewBox="0 0 1080 1080"
   version="1.1"
   id="svg1"
   xml:space="preserve"
   inkscape:export-filename="LOGO AUMAF3D QUADRADA.jpg"
   inkscape:export-xdpi="96"
   inkscape:export-ydpi="96"
   inkscape:version="1.4 (86a8ad7, 2024-10-11)"
   sodipodi:docname="Aumaf SVG.svg"
   xmlns:inkscape="http://www.inkscape.org/namespaces/inkscape"
   xmlns:sodipodi="http://sodipodi.sourceforge.net/DTD/sodipodi-0.dtd"
   xmlns="http://www.w3.org/2000/svg"
   xmlns:svg="http://www.w3.org/2000/svg"><sodipodi:namedview
     id="namedview1"
     pagecolor="#505050"
     bordercolor="#eeeeee"
     borderopacity="1"
     inkscape:showpageshadow="0"
     inkscape:pageopacity="0"
     inkscape:pagecheckerboard="0"
     inkscape:deskcolor="#505050"
     inkscape:document-units="px"
     inkscape:zoom="0.63928241"
     inkscape:cx="386.37071"
     inkscape:cy="559.22077"
     inkscape:window-width="1920"
     inkscape:window-height="1009"
     inkscape:window-x="-8"
     inkscape:window-y="-8"
     inkscape:window-maximized="1"
     inkscape:current-layer="svg1"><inkscape:page
       x="0"
       y="0"
       width="1080"
       height="1080"
       id="page1"
       margin="0"
       bleed="0" /><inkscape:page
       x="1090"
       y="0"
       width="1121.3333"
       height="118.66667"
       id="page2"
       margin="0"
       bleed="0" /></sodipodi:namedview><defs
     id="defs1" /><g
     inkscape:label="Layer 1"
     inkscape:groupmode="layer"
     id="layer1" /><g
     id="g1"
     inkscape:groupmode="layer"
     inkscape:label="1"
     transform="translate(1090)"><rect
       style="fill:#ffffff;stroke-width:13"
       id="rect2"
       width="1080.8994"
       height="1077.771"
       x="-1090.4497"
       y="1.114502" /></g><g
     id="g2"
     transform="translate(1097.7739,21.12225)"><path
       id="path1"
       d="m -165.80049,574.68941 -4.8878,-4.80496 h 4.99072 l 0.0201,4.815 z"
       style="fill:#2d7f00;fill-opacity:1;fill-rule:nonzero;stroke:none;stroke-width:1.25521" /><path
       id="path2"
       d="m -69.221851,574.13084 c 29.629316,0 38.705766,-10.36556 38.705766,-30.19416 v -48.81652 c 0,-15.99393 -9.110341,-32.63053 -38.705766,-31.24227 l -96.018819,4.50999 v 105.74296 z m 12.208208,-37.10286 c 0,11.26805 -4.16731,14.71989 -18.906028,14.71989 h -62.819669 v -60.98204 h 62.819669 c 14.738718,0 18.906028,3.45183 18.906028,15.62238 z"
       style="fill:#2d7f00;fill-opacity:1;fill-rule:nonzero;stroke:none;stroke-width:1.25521" /><path
       id="path3"
       d="m -69.222376,574.13084 c 29.629562,0 38.704914,-10.36556 38.704914,-30.19416 v -48.81652 c 0,-15.99393 -9.108941,-32.63053 -38.704914,-31.24227 l -96.019584,4.50999 v 105.74296 z m 12.209116,-37.10286 c 0,11.26805 -4.167571,14.71989 -18.907087,14.71989 h -62.819603 v -60.98204 h 62.819603 c 14.739516,0 18.907087,3.45183 18.907087,15.62238 z"
       style="fill:none;stroke:#2c7f00;stroke-width:1.1215;stroke-linecap:butt;stroke-linejoin:miter;stroke-miterlimit:4;stroke-dasharray:none;stroke-opacity:0.992157" /><path
       id="path4"
       d="m -74.111497,569.32965 c 29.625831,0 38.706159,-10.3643 38.706159,-30.19291 v -44.3103 c 0,-20.87796 -9.080328,-31.24352 -38.706159,-31.24352 h -96.018343 v 105.74673 z m 12.209117,-37.10161 c 0,11.26178 -4.172548,14.71362 -18.905843,14.71362 h -62.819597 v -60.97577 h 62.819597 c 14.733295,0 18.905843,3.45184 18.905843,15.61736 z"
       style="fill:#4ddb00;fill-opacity:1;fill-rule:nonzero;stroke:#4ddb00;stroke-width:1.1215;stroke-linecap:butt;stroke-linejoin:miter;stroke-miterlimit:4;stroke-dasharray:none;stroke-opacity:1" /><path
       id="path5"
       d="m -284.17216,526.81431 -5.30579,-4.0443 5.33968,-0.0301 z"
       style="fill:#2d7f00;fill-opacity:1;fill-rule:nonzero;stroke:none;stroke-width:1.25521" /><path
       id="path6"
       d="m -288.76749,489.96751 -5.30454,-4.05057 5.33466,-0.0289 z"
       style="fill:#2d7f00;fill-opacity:1;fill-rule:nonzero;stroke:none;stroke-width:1.25521" /><path
       id="path7"
       d="m -288.77627,468.22596 v 21.74657 h 67.41877 c 9.49193,0 10.40948,1.44099 10.40948,7.47229 v 4.78989 c 0,6.02629 -0.91755,6.18318 -10.40948,6.18318 h -62.81968 v 18.39642 h 63.11842 c 8.125,0 11.49273,2.47151 11.49273,9.27728 v 6.64385 c 0,8.81034 -3.22087,10.24756 -11.34587,10.24756 h -67.71751 l -0.118,17.637 -5.32462,0.0678 5.29576,4.04053 c 0.81337,-1.6029 0.15689,-1.40207 0,0.005 h 70.01706 c 26.66325,0 34.17068,-8.8116 34.17068,-21.17671 v -20.09848 c 0,-11.16387 -10.0028,-21.84323 -11.08228,-18.28344 8.11495,-1.49622 9.23335,-13.73957 9.23335,-13.99438 v -8.18775 c 0,-15.46047 -10.35049,-30.85567 -34.19955,-29.27661 z"
       style="fill:#2d7f00;fill-opacity:1;fill-rule:nonzero;stroke:none;stroke-width:1.25521" /><path
       id="path8"
       d="m -223.48097,570.11917 c 26.65877,0 34.17035,-8.81536 34.17035,-21.18172 v -17.77383 c 0,-10.51241 -1.37841,-15.61109 -9.50331,-17.77885 7.65963,-1.54391 8.1249,-8.65469 8.1249,-18.08762 v -8.19278 c 0,-14.5291 -9.19851,-23.49634 -33.09673,-23.49634 h -69.71288 v 21.75034 h 67.41885 c 9.49211,0 10.41395,1.44098 10.41395,7.46727 v 4.79491 c 0,6.02628 -0.92184,6.17816 -10.41395,6.17816 h -62.8196 v 18.39766 h 63.12315 c 8.11992,0 11.48881,2.47026 11.48881,9.27604 v 6.64886 c 0,8.80658 -3.22707,10.24254 -11.34699,10.24254 h -67.71743 l -0.14679,21.75536 z"
       style="fill:#4ddb00;fill-opacity:1;fill-rule:nonzero;stroke:#4ddb00;stroke-width:1.15424;stroke-linecap:butt;stroke-linejoin:miter;stroke-miterlimit:4;stroke-dasharray:none;stroke-opacity:1" /><path
       id="path9"
       d="m -315.02782,528.70717 v -16.48975 h -82.94702 V 479.553 h 88.96828 v -16.48974 h -108.99396 v 111.62615 h 20.02568 v -45.98224 z"
       style="fill:#000000;fill-opacity:1;fill-rule:nonzero;stroke:none;stroke-width:1.25521" /><path
       id="path10"
       d="m -428.3799,574.10573 -72.31295,-110.45879 h -15.08163 l -72.77325,110.45879 h 23.01121 l 57.38185,-88.96326 56.45006,88.96326 z"
       style="fill:#000000;fill-opacity:1;fill-rule:nonzero;stroke:#000000;stroke-width:1.1715;stroke-linecap:butt;stroke-linejoin:miter;stroke-miterlimit:4;stroke-dasharray:none;stroke-opacity:1" /><path
       id="path11"
       d="M -599.51529,574.10573 V 463.64694 h -17.73021 l -64.68816,90.21847 -65.00043,-90.21847 h -19.2803 v 110.45879 h 19.12231 v -77.19564 l 55.82803,77.19564 h 16.9502 l 55.67128,-77.35253 v 77.35253 z"
       style="fill:#000000;fill-opacity:1;fill-rule:nonzero;stroke:#000000;stroke-width:1.1715;stroke-linecap:butt;stroke-linejoin:miter;stroke-miterlimit:4;stroke-dasharray:none;stroke-opacity:1" /><path
       id="path12"
       d="m -806.68959,574.10573 c 24.87853,0 30.00776,-10.82622 30.00776,-26.6783 v -83.78049 h -20.68235 v 83.93738 c 0,6.5949 -4.35418,10.19862 -13.67958,10.19862 h -67.95753 c -9.33163,0 -13.68457,-3.60372 -13.68457,-10.19862 v -83.93738 h -20.68235 v 83.78049 c 0,15.85208 9.48838,26.6783 34.36692,26.6783 z"
       style="fill:#000000;fill-opacity:1;fill-rule:nonzero;stroke:#000000;stroke-width:1.1715;stroke-linecap:butt;stroke-linejoin:miter;stroke-miterlimit:4;stroke-dasharray:none;stroke-opacity:1" /><path
       id="path13"
       d="m -924.33202,574.10573 -72.31175,-110.45879 h -15.08163 l -72.7782,110.45879 h 23.0149 l 57.3819,-88.96326 56.44629,88.96326 z"
       style="fill:#000000;fill-opacity:1;fill-rule:nonzero;stroke:#000000;stroke-width:1.1715;stroke-linecap:butt;stroke-linejoin:miter;stroke-miterlimit:4;stroke-dasharray:none;stroke-opacity:1" /></g></svg>
