<?xml version="1.0" encoding="UTF-8" standalone="no"?>
<!-- Created with Inkscape (http://www.inkscape.org/) -->

<svg
   version="1.1"
   id="svg1"
   width="1122.5197"
   height="793.70081"
   viewBox="0 0 1122.5197 793.70081"
   sodipodi:docname="LOGO AUMA VETOR.svg"
   inkscape:version="1.4 (86a8ad7, 2024-10-11)"
   inkscape:export-filename="LOGO AUMAF 3D-branquinha.png"
   inkscape:export-xdpi="96"
   inkscape:export-ydpi="96"
   xmlns:inkscape="http://www.inkscape.org/namespaces/inkscape"
   xmlns:sodipodi="http://sodipodi.sourceforge.net/DTD/sodipodi-0.dtd"
   xmlns="http://www.w3.org/2000/svg"
   xmlns:svg="http://www.w3.org/2000/svg">
  <defs
     id="defs1">
    <rect
       x="233.09429"
       y="63.928813"
       width="311.7759"
       height="183.91828"
       id="rect12" />
    <rect
       x="215.39092"
       y="44.258409"
       width="332.42983"
       height="159.33027"
       id="rect11" />
  </defs>
  <sodipodi:namedview
     id="namedview1"
     pagecolor="#505050"
     bordercolor="#eeeeee"
     borderopacity="1"
     inkscape:showpageshadow="0"
     inkscape:pageopacity="0"
     inkscape:pagecheckerboard="0"
     inkscape:deskcolor="#505050"
     showguides="true"
     inkscape:zoom="0.97149541"
     inkscape:cx="623.26594"
     inkscape:cy="341.22652"
     inkscape:window-width="1920"
     inkscape:window-height="1009"
     inkscape:window-x="-8"
     inkscape:window-y="-8"
     inkscape:window-maximized="1"
     inkscape:current-layer="g1">
    <inkscape:page
       x="0"
       y="0"
       inkscape:label="1"
       id="page1"
       width="1122.5197"
       height="793.70081"
       margin="0"
       bleed="0" />
  </sodipodi:namedview>
  <g
     id="g1"
     inkscape:groupmode="layer"
     inkscape:label="1">
    <g
       id="g13"
       style="display:inline"
       transform="matrix(0.89156539,0,0,0.89156539,134.77075,66.438227)">
      <path
         id="path1"
         d="m 944.98723,437.11962 -5.81943,-5.67304 h 5.9464 l 0.0207,5.6834 z"
         style="fill:#2d7f00;fill-opacity:1;fill-rule:nonzero;stroke:none;stroke-width:1.29551" />
      <path
         id="path2"
         d="m 1060.0402,436.45761 c 35.2924,0 46.1073,-12.23739 46.1073,-35.64729 v -57.6347 c 0,-18.88597 -10.8551,-38.52722 -46.1073,-36.8871 l -114.38448,5.32326 v 124.84583 z m 14.5434,-43.80512 c 0,13.3049 -4.9643,17.38317 -22.5237,17.38317 h -74.83645 v -72.00193 h 74.83645 c 17.5594,0 22.5237,4.07827 22.5237,18.44549 z"
         style="fill:#2d7f00;fill-opacity:1;fill-rule:nonzero;stroke:#2c7f00;stroke-width:1.33005;stroke-linecap:butt;stroke-linejoin:miter;stroke-miterlimit:4;stroke-dasharray:none;stroke-opacity:0.992157" />
      <path
         id="path3"
         d="m 1054.2157,430.78975 c 35.2922,0 46.1072,-12.2374 46.1072,-35.64729 v -52.31663 c 0,-24.64969 -10.815,-36.88579 -46.1072,-36.88579 H 939.8311 v 124.84971 z m 14.5434,-43.80512 c 0,13.29972 -4.9696,17.37798 -22.5238,17.37798 h -74.83647 v -71.99674 h 74.83647 c 17.5542,0 22.5238,4.07827 22.5238,18.4403 z"
         style="fill:#4ddb00;fill-opacity:1;fill-rule:nonzero;stroke:#4ddb00;stroke-width:1.33005;stroke-linecap:butt;stroke-linejoin:miter;stroke-miterlimit:4;stroke-dasharray:none;stroke-opacity:1" />
      <path
         id="path4"
         d="m 602.984,285.449 -4.742,-3.586 4.77,-0.023 z"
         style="fill:#2d7f00;fill-opacity:1;fill-rule:nonzero;stroke:none"
         transform="scale(1.3333333)" />
      <path
         id="path5"
         d="m 598.879,252.82 -4.742,-3.586 4.769,-0.027 z"
         style="fill:#2d7f00;fill-opacity:1;fill-rule:nonzero;stroke:none"
         transform="scale(1.3333333)" />
      <path
         id="path6"
         d="m 598.871,233.566 v 19.258 h 60.231 c 8.484,0 9.304,1.274 9.304,6.614 v 4.242 c 0,5.336 -0.82,5.476 -9.304,5.476 h -56.125 v 16.289 h 56.394 c 7.258,0 10.27,2.192 10.27,8.215 v 5.883 c 0,7.805 -2.879,9.078 -10.137,9.078 H 599 l -0.105,15.617 -4.758,0.059 4.73,3.578 c 0.727,-1.418 0.141,-1.242 0.004,0.004 h 62.555 c 23.82,0 30.527,-7.801 30.527,-18.75 v -17.797 c 0,-9.887 -8.933,-19.344 -9.898,-16.191 7.25,-1.325 8.25,-12.168 8.25,-12.391 v -7.254 c 0,-13.687 -9.25,-27.32 -30.559,-25.922 z"
         style="fill:#2d7f00;fill-opacity:1;fill-rule:nonzero;stroke:none"
         transform="scale(1.3333333)" />
      <path
         id="path7"
         d="m 657.207,323.793 c 23.82,0 30.527,-7.805 30.527,-18.754 v -15.742 c 0,-9.309 -1.23,-13.824 -8.488,-15.742 6.844,-1.367 7.258,-7.664 7.258,-16.016 v -7.254 c 0,-12.867 -8.215,-20.808 -29.57,-20.808 h -62.282 v 19.261 h 60.231 c 8.484,0 9.305,1.274 9.305,6.61 v 4.246 c 0,5.336 -0.821,5.472 -9.305,5.472 h -56.125 v 16.289 h 56.398 c 7.254,0 10.266,2.192 10.266,8.215 v 5.887 c 0,7.801 -2.883,9.074 -10.137,9.074 h -60.504 l -0.129,19.262 z"
         style="fill:#4ddb00;fill-opacity:1;fill-rule:nonzero;stroke:#4ddb00;stroke-width:1.02666;stroke-linecap:butt;stroke-linejoin:miter;stroke-miterlimit:4;stroke-dasharray:none;stroke-opacity:1"
         transform="scale(1.3333333)" />
    </g>
    <g
       id="g12"
       style="display:inline;fill:#ffffff;stroke:none"
       transform="matrix(0.90489054,0,0,0.90489054,-8.20843,62.60126)">
      <path
         d="M 913.92688,381.43327 V 362.25021 H 816.57062 V 324.253 H 920.9945 V 305.06994 H 793.07083 v 129.85457 h 23.49979 v -53.49124 z"
         id="text12"
         style="-inkscape-font-specification:Pirulen;display:inline;stroke-width:24.4466;fill:#ffffff;stroke:none"
         aria-label="f"
         inkscape:label="text12" />
      <path
         id="path8"
         d="M 780.88393,434.24456 696.01326,305.7499 H 678.3106 l -85.416,128.49466 h 27.00933 l 67.34933,-103.49066 66.256,103.49066 z"
         style="fill:#ffffff;fill-opacity:1;fill-rule:nonzero;stroke:none;stroke-width:1.36888;stroke-linecap:butt;stroke-linejoin:miter;stroke-miterlimit:4;stroke-dasharray:none;stroke-opacity:1" />
      <path
         id="path9"
         d="M 580.01876,434.24456 V 305.7499 h -20.80667 l -75.928,104.948 -76.29066,-104.948 h -22.63067 v 128.49466 h 22.448 V 344.4419 l 65.52133,89.80266 h 19.89467 l 65.344,-89.98533 v 89.98533 z"
         style="fill:#ffffff;fill-opacity:1;fill-rule:nonzero;stroke:none;stroke-width:1.36888;stroke-linecap:butt;stroke-linejoin:miter;stroke-miterlimit:4;stroke-dasharray:none;stroke-opacity:1" />
      <path
         id="path10"
         d="m 336.85533,434.24456 c 29.20399,0 35.22399,-12.59466 35.22399,-31.032 V 305.7499 h -24.276 v 97.64533 c 0,7.66667 -5.10933,11.864 -16.05733,11.864 h -79.76 c -10.95333,0 -16.06266,-4.19733 -16.06266,-11.864 V 305.7499 h -24.276 v 97.46266 c 0,18.43734 11.136,31.032 40.33866,31.032 z"
         style="fill:#ffffff;fill-opacity:1;fill-rule:nonzero;stroke:none;stroke-width:1.36888;stroke-linecap:butt;stroke-linejoin:miter;stroke-miterlimit:4;stroke-dasharray:none;stroke-opacity:1" />
      <path
         id="path11"
         d="M 198.776,434.24456 113.90666,305.7499 H 96.202664 L 10.781333,434.24456 H 37.797332 L 105.14533,330.7539 171.396,434.24456 Z"
         style="fill:#ffffff;fill-opacity:1;fill-rule:nonzero;stroke:none;stroke-width:1.36888;stroke-linecap:butt;stroke-linejoin:miter;stroke-miterlimit:4;stroke-dasharray:none;stroke-opacity:1" />
    </g>
  </g>
</svg>
