<?xml version="1.0" encoding="UTF-8" standalone="no"?>
<!-- Created with Inkscape (http://www.inkscape.org/) -->

<svg
   width="90mm"
   height="48mm"
   viewBox="0 0 90 48"
   id="SVGRoot"
   version="1.1"
   xml:space="preserve"
   inkscape:export-filename="Frente - CARTÃO PIPA.png"
   inkscape:export-xdpi="96"
   inkscape:export-ydpi="96"
   inkscape:version="1.4 (86a8ad7, 2024-10-11)"
   sodipodi:docname="cartaopipa.svg"
   xmlns:inkscape="http://www.inkscape.org/namespaces/inkscape"
   xmlns:sodipodi="http://sodipodi.sourceforge.net/DTD/sodipodi-0.dtd"
   xmlns="http://www.w3.org/2000/svg"
   xmlns:svg="http://www.w3.org/2000/svg"><sodipodi:namedview
     inkscape:document-units="mm"
     inkscape:zoom="3.1684479"
     inkscape:cx="184.00176"
     inkscape:cy="100.20679"
     id="namedview1"
     pagecolor="#505050"
     bordercolor="#eeeeee"
     borderopacity="1"
     inkscape:showpageshadow="0"
     inkscape:pageopacity="0"
     inkscape:pagecheckerboard="0"
     inkscape:deskcolor="#505050"
     showgrid="true"
     showguides="true"
     inkscape:window-width="1920"
     inkscape:window-height="1009"
     inkscape:window-x="-8"
     inkscape:window-y="-8"
     inkscape:window-maximized="1"
     inkscape:current-layer="g5"><sodipodi:guide
       position="0,48"
       orientation="0,340.15748"
       id="guide1"
       inkscape:locked="false" /><sodipodi:guide
       position="90,0"
       orientation="0,-340.15748"
       id="guide3"
       inkscape:locked="false" /><sodipodi:guide
       position="0,0"
       orientation="-181.41732,0"
       id="guide4"
       inkscape:locked="false" /><inkscape:grid
       id="grid4"
       units="mm"
       originx="0"
       originy="0"
       spacingx="0.60000001"
       spacingy="0.60000004"
       empcolor="#0099e5"
       empopacity="0.30196078"
       color="#0099e5"
       opacity="0.14901961"
       empspacing="5"
       enabled="true"
       visible="true" /><sodipodi:guide
       position="28.531023,3.8280715"
       orientation="0,-1"
       id="guide107"
       inkscape:locked="false" /><sodipodi:guide
       position="3.6000001,23.399998"
       orientation="1,0"
       id="guide108"
       inkscape:locked="false" /><sodipodi:guide
       position="86.225114,16.289428"
       orientation="1,0"
       id="guide109"
       inkscape:locked="false" /><sodipodi:guide
       position="85.286572,10.420884"
       orientation="0,-1"
       id="guide111"
       inkscape:locked="false" /><sodipodi:guide
       position="85.285377,11.560277"
       orientation="0,-1"
       id="guide112"
       inkscape:locked="false" /></sodipodi:namedview><defs
     id="defs1"><rect
       x="240.37796"
       y="31.748034"
       width="85.512239"
       height="9.0708668"
       id="rect109" /></defs><g
     inkscape:label="Layer 1"
     inkscape:groupmode="layer"
     id="layer1"
     style="display:inline"><rect
       style="fill:#000000;fill-opacity:1;stroke:none;stroke-width:3.43958"
       id="rect5"
       width="90"
       height="48"
       x="0"
       y="1.0596389e-08"
       inkscape:label="Preto" /><rect
       style="display:none;fill:#ffffff;fill-opacity:1;stroke:none;stroke-width:3.43958"
       id="rect5-1"
       width="90"
       height="48"
       x="5.7731597e-15"
       y="-2.3312039e-07"
       inkscape:label="Branco" /><g
       id="g5"
       transform="matrix(0.24553288,0,0,0.24553288,-121.02451,-132.42338)"
       style="display:inline"
       inkscape:label="Logo"><g
         inkscape:label="Layer 1"
         id="layer1-4"
         style="display:inline" /><g
         id="g2"
         transform="matrix(0.14000755,0,0,0.14000755,754.2729,564.43033)"><path
           id="path1"
           d="m -165.80049,574.68941 -4.8878,-4.80496 h 4.99072 l 0.0201,4.815 z"
           style="fill:#2d7f00;fill-opacity:1;fill-rule:nonzero;stroke:none;stroke-width:1.25521" /><path
           id="path2"
           d="m -69.221851,574.13084 c 29.629316,0 38.705766,-10.36556 38.705766,-30.19416 v -48.81652 c 0,-15.99393 -9.110341,-32.63053 -38.705766,-31.24227 l -96.018819,4.50999 v 105.74296 z m 12.208208,-37.10286 c 0,11.26805 -4.16731,14.71989 -18.906028,14.71989 h -62.819669 v -60.98204 h 62.819669 c 14.738718,0 18.906028,3.45183 18.906028,15.62238 z"
           style="fill:#2d7f00;fill-opacity:1;fill-rule:nonzero;stroke:none;stroke-width:1.25521" /><path
           id="path3"
           d="m -69.222376,574.13084 c 29.629562,0 38.704914,-10.36556 38.704914,-30.19416 v -48.81652 c 0,-15.99393 -9.108941,-32.63053 -38.704914,-31.24227 l -96.019584,4.50999 v 105.74296 z m 12.209116,-37.10286 c 0,11.26805 -4.167571,14.71989 -18.907087,14.71989 h -62.819603 v -60.98204 h 62.819603 c 14.739516,0 18.907087,3.45183 18.907087,15.62238 z"
           style="fill:none;stroke:#2c7f00;stroke-width:1.1215;stroke-linecap:butt;stroke-linejoin:miter;stroke-miterlimit:4;stroke-dasharray:none;stroke-opacity:0.992157" /><path
           id="path4"
           d="m -74.111497,569.32965 c 29.625831,0 38.706159,-10.3643 38.706159,-30.19291 v -44.3103 c 0,-20.87796 -9.080328,-31.24352 -38.706159,-31.24352 h -96.018343 v 105.74673 z m 12.209117,-37.10161 c 0,11.26178 -4.172548,14.71362 -18.905843,14.71362 h -62.819597 v -60.97577 h 62.819597 c 14.733295,0 18.905843,3.45184 18.905843,15.61736 z"
           style="fill:#4ddb00;fill-opacity:1;fill-rule:nonzero;stroke:#4ddb00;stroke-width:1.1215;stroke-linecap:butt;stroke-linejoin:miter;stroke-miterlimit:4;stroke-dasharray:none;stroke-opacity:1" /><path
           id="path5"
           d="m -284.17216,526.81431 -5.30579,-4.0443 5.33968,-0.0301 z"
           style="fill:#2d7f00;fill-opacity:1;fill-rule:nonzero;stroke:none;stroke-width:1.25521" /><path
           id="path6"
           d="m -288.76749,489.96751 -5.30454,-4.05057 5.33466,-0.0289 z"
           style="fill:#2d7f00;fill-opacity:1;fill-rule:nonzero;stroke:none;stroke-width:1.25521" /><path
           id="path7"
           d="m -288.77627,468.22596 v 21.74657 h 67.41877 c 9.49193,0 10.40948,1.44099 10.40948,7.47229 v 4.78989 c 0,6.02629 -0.91755,6.18318 -10.40948,6.18318 h -62.81968 v 18.39642 h 63.11842 c 8.125,0 11.49273,2.47151 11.49273,9.27728 v 6.64385 c 0,8.81034 -3.22087,10.24756 -11.34587,10.24756 h -67.71751 l -0.118,17.637 -5.32462,0.0678 5.29576,4.04053 c 0.81337,-1.6029 0.15689,-1.40207 0,0.005 h 70.01706 c 26.66325,0 34.17068,-8.8116 34.17068,-21.17671 v -20.09848 c 0,-11.16387 -10.0028,-21.84323 -11.08228,-18.28344 8.11495,-1.49622 9.23335,-13.73957 9.23335,-13.99438 v -8.18775 c 0,-15.46047 -10.35049,-30.85567 -34.19955,-29.27661 z"
           style="fill:#2d7f00;fill-opacity:1;fill-rule:nonzero;stroke:none;stroke-width:1.25521" /><path
           id="path8"
           d="m -223.48097,570.11917 c 26.65877,0 34.17035,-8.81536 34.17035,-21.18172 v -17.77383 c 0,-10.51241 -1.37841,-15.61109 -9.50331,-17.77885 7.65963,-1.54391 8.1249,-8.65469 8.1249,-18.08762 v -8.19278 c 0,-14.5291 -9.19851,-23.49634 -33.09673,-23.49634 h -69.71288 v 21.75034 h 67.41885 c 9.49211,0 10.41395,1.44098 10.41395,7.46727 v 4.79491 c 0,6.02628 -0.92184,6.17816 -10.41395,6.17816 h -62.8196 v 18.39766 h 63.12315 c 8.11992,0 11.48881,2.47026 11.48881,9.27604 v 6.64886 c 0,8.80658 -3.22707,10.24254 -11.34699,10.24254 h -67.71743 l -0.14679,21.75536 z"
           style="fill:#4ddb00;fill-opacity:1;fill-rule:nonzero;stroke:#4ddb00;stroke-width:1.15424;stroke-linecap:butt;stroke-linejoin:miter;stroke-miterlimit:4;stroke-dasharray:none;stroke-opacity:1" /><path
           id="path9"
           d="m -315.02782,528.70717 v -16.48975 h -82.94702 V 479.553 h 88.96828 v -16.48974 h -108.99396 v 111.62615 h 20.02568 v -45.98224 z"
           style="fill:#ffffff;fill-opacity:1;fill-rule:nonzero;stroke:none;stroke-width:1.25521" /><path
           id="path10"
           d="m -428.3799,574.10573 -72.31295,-110.45879 h -15.08163 l -72.77325,110.45879 h 23.01121 l 57.38185,-88.96326 56.45006,88.96326 z"
           style="fill:#ffffff;fill-opacity:1;fill-rule:nonzero;stroke:#000000;stroke-width:1.1715;stroke-linecap:butt;stroke-linejoin:miter;stroke-miterlimit:4;stroke-dasharray:none;stroke-opacity:1" /><path
           id="path11"
           d="M -599.51529,574.10573 V 463.64694 h -17.73021 l -64.68816,90.21847 -65.00043,-90.21847 h -19.2803 v 110.45879 h 19.12231 v -77.19564 l 55.82803,77.19564 h 16.9502 l 55.67128,-77.35253 v 77.35253 z"
           style="fill:#ffffff;fill-opacity:1;fill-rule:nonzero;stroke:#000000;stroke-width:1.1715;stroke-linecap:butt;stroke-linejoin:miter;stroke-miterlimit:4;stroke-dasharray:none;stroke-opacity:1" /><path
           id="path12"
           d="m -806.68959,574.10573 c 24.87853,0 30.00776,-10.82622 30.00776,-26.6783 v -83.78049 h -20.68235 v 83.93738 c 0,6.5949 -4.35418,10.19862 -13.67958,10.19862 h -67.95753 c -9.33163,0 -13.68457,-3.60372 -13.68457,-10.19862 v -83.93738 h -20.68235 v 83.78049 c 0,15.85208 9.48838,26.6783 34.36692,26.6783 z"
           style="fill:#ffffff;fill-opacity:1;fill-rule:nonzero;stroke:#000000;stroke-width:1.1715;stroke-linecap:butt;stroke-linejoin:miter;stroke-miterlimit:4;stroke-dasharray:none;stroke-opacity:1" /><path
           id="path13"
           d="m -924.33202,574.10573 -72.31175,-110.45879 h -15.08163 l -72.7782,110.45879 h 23.0149 l 57.3819,-88.96326 56.44629,88.96326 z"
           style="fill:#ffffff;fill-opacity:1;fill-rule:nonzero;stroke:#000000;stroke-width:1.1715;stroke-linecap:butt;stroke-linejoin:miter;stroke-miterlimit:4;stroke-dasharray:none;stroke-opacity:1" /></g></g><g
       id="g112"
       style="display:none"><path
         d="m 78.796051,37.288734 h -0.42919 l -0.111555,0.290384 h -0.222259 l 0.452181,-1.139395 h 0.190752 l 0.452181,1.139395 h -0.220556 z m -0.216298,-0.574807 c -0.03974,0.119219 -0.07522,0.218853 -0.106447,0.2989 l -0.03917,0.101336 h 0.294642 l -0.03917,-0.101336 c -0.03122,-0.08062 -0.0667,-0.180249 -0.106446,-0.2989 z m 1.181973,0.886481 c -0.05961,0 -0.113255,-0.006 -0.160946,-0.01788 -0.04769,-0.01135 -0.0897,-0.02782 -0.126031,-0.04939 -0.03633,-0.02214 -0.06727,-0.04882 -0.09282,-0.08005 -0.02555,-0.03179 -0.04598,-0.06756 -0.06131,-0.107297 -0.01249,-0.03179 -0.02158,-0.06699 -0.02725,-0.105594 -0.0051,-0.03861 -0.0076,-0.08175 -0.0076,-0.129438 v -0.671031 h 0.208633 v 0.652299 c 0,0.08062 0.0097,0.143631 0.02896,0.189048 0.02157,0.05053 0.05307,0.08714 0.09452,0.109852 0.04145,0.02214 0.09027,0.03321 0.14647,0.03321 0.05621,0 0.10503,-0.01107 0.146469,-0.03321 0.04144,-0.02271 0.07295,-0.05932 0.09452,-0.109852 0.01931,-0.04542 0.02896,-0.108436 0.02896,-0.189048 v -0.652299 h 0.208634 v 0.671034 c 0,0.04769 -0.0028,0.09083 -0.0085,0.129438 -0.0051,0.03861 -0.01386,0.07381 -0.02639,0.105594 -0.01533,0.03974 -0.03605,0.07551 -0.06216,0.107297 -0.02555,0.03123 -0.05705,0.05791 -0.09452,0.08005 -0.0369,0.02157 -0.07948,0.03804 -0.127735,0.04939 -0.04826,0.01192 -0.102193,0.01788 -0.161798,0.01788 z m 1.335256,-0.327002 c 0.02498,-0.0897 0.05592,-0.185926 0.09282,-0.288681 l 0.196711,-0.545002 h 0.292939 v 1.139395 H 81.47082 v -0.577362 c 0,-0.08459 0.0034,-0.182802 0.01022,-0.294641 h -0.0076 c -0.0097,0.03236 -0.02101,0.06869 -0.03406,0.109 -0.01306,0.04031 -0.02668,0.08005 -0.04087,0.119219 l -0.235884,0.643784 h -0.134548 l -0.235883,-0.643784 c -0.01419,-0.03917 -0.02782,-0.07891 -0.04087,-0.119219 -0.01306,-0.04031 -0.02441,-0.07664 -0.03406,-0.109 h -0.0076 c 0.0068,0.105026 0.01022,0.202956 0.01022,0.29379 v 0.578213 h -0.208634 v -1.139395 h 0.291236 l 0.196712,0.542447 c 0.03293,0.09027 0.06387,0.187345 0.09282,0.291236 z m 1.507272,0.01533 h -0.42919 l -0.111555,0.290385 H 81.84125 l 0.452182,-1.139395 h 0.190751 l 0.452182,1.139395 H 82.715809 Z M 82.387956,36.71393 c -0.03974,0.119219 -0.07522,0.218852 -0.106446,0.298899 l -0.03917,0.101336 h 0.294642 l -0.03917,-0.101336 c -0.03123,-0.08062 -0.06671,-0.180248 -0.106446,-0.298899 z m 0.91884,0.865191 h -0.208634 v -1.139395 h 0.725534 v 0.174571 h -0.5169 v 0.294642 h 0.441963 v 0.174571 h -0.441963 z m 1.910063,0 v -1.139395 h 0.301454 c 0.02668,0 0.05365,8.67e-4 0.0809,0.0026 0.02781,0.0017 0.05478,0.0043 0.0809,0.0076 0.02611,0.0034 0.05138,0.0077 0.07579,0.01277 0.02441,0.0045 0.04683,0.01021 0.06727,0.01703 0.06075,0.0193 0.114395,0.04542 0.160946,0.07835 0.04655,0.03293 0.08544,0.07182 0.116665,0.116665 0.03179,0.04485 0.05564,0.09509 0.07153,0.150726 0.01647,0.05507 0.0247,0.11496 0.0247,0.179681 0,0.06131 -0.0068,0.118936 -0.02044,0.172868 -0.01363,0.05337 -0.03435,0.10219 -0.06217,0.146469 -0.02781,0.04428 -0.06301,0.08345 -0.105593,0.117517 -0.04201,0.03349 -0.09197,0.06103 -0.149876,0.0826 -0.04825,0.01817 -0.103037,0.03179 -0.164352,0.04087 -0.06131,0.0091 -0.13029,0.01363 -0.206931,0.01363 z m 0.294642,-0.174571 c 0.122057,0 0.217433,-0.01675 0.286126,-0.05024 0.06075,-0.03009 0.106731,-0.0738 0.137953,-0.131141 0.03123,-0.05734 0.04684,-0.130575 0.04684,-0.219704 0,-0.04655 -0.0051,-0.08856 -0.01533,-0.126032 -0.01022,-0.03747 -0.02498,-0.07068 -0.04428,-0.09963 -0.0193,-0.02952 -0.04286,-0.05478 -0.07068,-0.07579 -0.02725,-0.02101 -0.05819,-0.03832 -0.09282,-0.05194 -0.03236,-0.01249 -0.06841,-0.02158 -0.108149,-0.02725 -0.03974,-0.0057 -0.08431,-0.0085 -0.133696,-0.0085 h -0.09197 v 0.790253 z"
         id="path104"
         style="font-weight:bold;font-size:2.17059px;font-family:Corbel;-inkscape-font-specification:'Corbel, Bold';text-align:end;text-anchor:end;display:inline;stroke-width:2.12551"
         sodipodi:nodetypes="ccccccccccccccccscccccsccsccsccsccscccccssccccccsccsccccsccsccccccccccccccccccccccccccccccccccccsccccsccscsccsccccssscccssccc" /><path
         d="m 85.076015,36.737201 c 0,0.05473 -0.01249,0.103498 -0.03747,0.146304 -0.02498,0.04281 -0.06472,0.07641 -0.11922,0.100789 v 0.0032 c 0.02668,0.0071 0.05109,0.01788 0.07324,0.03251 0.02215,0.01463 0.04117,0.03252 0.05706,0.05364 0.01647,0.02113 0.02924,0.04524 0.03832,0.07234 0.0091,0.02654 0.01363,0.05608 0.01363,0.08859 0,0.0531 -0.0091,0.101057 -0.02725,0.143868 -0.0176,0.04281 -0.04457,0.07938 -0.0809,0.109728 -0.03633,0.03034 -0.08203,0.05365 -0.137102,0.06991 -0.0545,0.01626 -0.118367,0.02439 -0.191602,0.02439 -0.02044,0 -0.04201,-10e-4 -0.06472,-0.0032 -0.02271,-0.0016 -0.04542,-0.0047 -0.06813,-0.009 -0.02214,-0.0037 -0.044,-0.0086 -0.06557,-0.01463 -0.021,-0.006 -0.0403,-0.01303 -0.05791,-0.02113 v -0.167439 c 0.03179,0.01409 0.06841,0.02601 0.109852,0.03576 0.04201,0.0098 0.08743,0.01463 0.13625,0.01463 0.04428,0 0.08146,-0.0049 0.111556,-0.01463 0.03065,-0.0098 0.05535,-0.02303 0.07409,-0.03982 0.01873,-0.01626 0.03207,-0.0355 0.04002,-0.05771 0.0085,-0.02168 0.01277,-0.04471 0.01277,-0.0691 0,-0.03576 -0.0079,-0.0653 -0.02385,-0.0886 -0.01533,-0.02384 -0.03747,-0.04172 -0.06642,-0.05364 -0.01476,-0.006 -0.03179,-0.01004 -0.05109,-0.01219 -0.01873,-0.0028 -0.04144,-0.0041 -0.06813,-0.0041 h -0.132845 v -0.163374 h 0.09027 c 0.02611,0 0.04939,-10e-4 0.06983,-0.0032 0.02044,-0.0028 0.03889,-0.0073 0.05535,-0.01382 0.03236,-0.01247 0.05734,-0.03143 0.07494,-0.0569 0.0176,-0.02601 0.0264,-0.05852 0.0264,-0.09754 0,-0.02547 -0.0051,-0.04687 -0.01533,-0.06421 -0.01022,-0.01788 -0.02413,-0.03224 -0.04172,-0.04308 -0.0176,-0.01083 -0.03832,-0.0187 -0.06217,-0.02358 -0.02384,-0.0049 -0.0474,-0.0073 -0.07068,-0.0073 -0.04769,0 -0.09197,0.0046 -0.132845,0.01382 -0.04031,0.0087 -0.07976,0.0206 -0.118368,0.03576 V 36.48762 c 0.0369,-0.01354 0.07749,-0.02492 0.121774,-0.03413 0.04428,-0.0093 0.09623,-0.01382 0.155837,-0.01382 0.05791,0 0.109852,0.0078 0.155836,0.02358 0.04655,0.01518 0.08573,0.03631 0.117517,0.0634 0.03236,0.02654 0.05677,0.05797 0.07324,0.09428 0.01703,0.03576 0.02555,0.07451 0.02555,0.116231 z"
         id="path104-8"
         style="font-weight:bold;font-size:2.17059px;font-family:Corbel;-inkscape-font-specification:'Corbel, Bold';text-align:end;text-anchor:end;display:inline;stroke-width:2.07658"
         sodipodi:nodetypes="csccsccscscsccccccscccscccsccscccscsssccccsccccc" /><path
         d="m 62.633835,6.6507534 h 0.0042 q 0.02226,-0.031796 0.05617,-0.062532 0.03392,-0.030736 0.07737,-0.054053 0.04345,-0.023317 0.09539,-0.037095 0.05299,-0.014838 0.112345,-0.014838 0.05617,0 0.108106,0.012718 0.05299,0.012718 0.09645,0.040275 0.04345,0.026496 0.07631,0.069951 0.03391,0.042394 0.05299,0.1017464 0.0106,0.032856 0.01378,0.07207 0.0042,0.038155 0.0042,0.089028 V 7.5346753 H 63.080035 V 6.9072391 q 0,-0.041334 -0.0032,-0.07101 -0.0032,-0.029676 -0.01166,-0.051933 -0.01908,-0.048754 -0.05829,-0.069951 -0.03815,-0.021197 -0.09327,-0.021197 -0.07313,0 -0.140961,0.034975 -0.06677,0.033915 -0.118704,0.099627 V 7.5346753 H 62.402785 V 6.5076725 h 0.207733 z m 0.979309,-0.1430809 h 0.251186 v 1.0270028 h -0.251186 z m -0.0064,-0.5076721 h 0.263904 V 6.272384 h -0.263904 z m 1.068337,1.3587384 q 0.07313,0 0.152619,-0.014838 0.07949,-0.014838 0.161099,-0.042394 V 7.50182 q -0.04875,0.021197 -0.14944,0.040275 -0.100687,0.019077 -0.208792,0.019077 -0.109166,0 -0.207733,-0.027556 Q 64.325324,7.505 64.252197,7.442468 64.179067,7.379936 64.135613,7.2803097 q -0.04239,-0.099627 -0.04239,-0.2416477 0,-0.1399013 0.04027,-0.2448273 0.04027,-0.104926 0.108106,-0.1738168 0.06783,-0.068891 0.154739,-0.1028062 0.08797,-0.034975 0.181236,-0.034975 0.09751,0 0.179116,0.029676 0.08267,0.029676 0.142021,0.093267 0.06041,0.063592 0.09327,0.1642781 0.03392,0.099627 0.03392,0.2363484 -0.0011,0.052993 -0.0032,0.090088 h -0.67301 q 0.0053,0.07101 0.0318,0.1218837 0.0265,0.049813 0.06889,0.081609 0.04345,0.030736 0.100686,0.045574 0.05723,0.013778 0.124004,0.013778 z M 64.574435,6.6783097 q -0.04769,0 -0.08479,0.018018 -0.03709,0.016958 -0.06465,0.047694 -0.0265,0.029676 -0.04239,0.069951 -0.0159,0.040275 -0.0212,0.085848 h 0.403806 q 0,-0.045574 -0.01272,-0.085848 -0.01166,-0.040275 -0.03603,-0.069951 -0.02332,-0.030736 -0.05935,-0.047694 -0.03498,-0.018018 -0.08267,-0.018018 z m 0.695267,0.8563656 V 6.0000004 h 0.251187 v 1.5346749 z m 0.979309,-0.1738168 q 0.0371,0 0.06995,-0.00954 0.03391,-0.00954 0.06359,-0.025437 0.02968,-0.015898 0.05193,-0.034975 0.02332,-0.019077 0.03921,-0.037095 V 6.766278 q -0.04451,-0.036035 -0.09963,-0.059352 -0.05511,-0.024377 -0.116585,-0.024377 -0.03922,0 -0.08267,0.015898 -0.04239,0.015898 -0.07843,0.054053 -0.03498,0.038155 -0.05935,0.1059859 -0.02332,0.067831 -0.02332,0.1727569 0,0.1547393 0.05935,0.2416477 0.06041,0.086908 0.175936,0.087968 z M 65.754057,7.0418412 q 0,-0.1346021 0.0371,-0.239528 0.0371,-0.1059859 0.100686,-0.1769964 0.06465,-0.07207 0.14732,-0.1070457 0.08267,-0.036035 0.171697,-0.036035 0.04134,0 0.07843,0.00742 0.03709,0.00742 0.06995,0.020137 0.03285,0.012718 0.06147,0.028616 0.02862,0.015898 0.05299,0.032856 h 0.0021 q -0.0011,-0.021197 -0.0021,-0.059352 0,-0.039215 0,-0.084789 V 6.0000004 h 0.251187 v 1.2294357 q 0,0.1017464 0.0021,0.1748766 0.0021,0.07313 0.0042,0.1303626 h -0.22681 l -0.0106,-0.1091654 h -0.0042 q -0.02226,0.026496 -0.05405,0.051933 -0.03074,0.025437 -0.06889,0.044514 -0.03709,0.018018 -0.08267,0.028616 -0.04451,0.010599 -0.09751,0.010599 -0.08373,0 -0.161099,-0.029676 -0.07631,-0.029676 -0.137781,-0.091148 -0.06041,-0.062532 -0.09751,-0.1621583 -0.03604,-0.1006866 -0.03604,-0.2363484 z m 1.718031,0.1950139 q 0,-0.032856 -0.01908,-0.054053 -0.01802,-0.021197 -0.04875,-0.034975 -0.03074,-0.014838 -0.07101,-0.025437 -0.03921,-0.010599 -0.08267,-0.021197 -0.05511,-0.014838 -0.105985,-0.033915 -0.05087,-0.020137 -0.09009,-0.051933 -0.03816,-0.031796 -0.06147,-0.079489 -0.02226,-0.048754 -0.02226,-0.1187041 0,-0.085848 0.03074,-0.1483802 0.03074,-0.063592 0.08267,-0.104926 0.05299,-0.041334 0.121883,-0.061472 0.06995,-0.020137 0.147321,-0.020137 0.09433,0 0.176996,0.015898 0.08267,0.014838 0.14944,0.039215 v 0.2045514 q -0.03497,-0.011658 -0.07419,-0.021197 -0.03815,-0.010599 -0.07843,-0.018018 -0.03921,-0.00742 -0.07843,-0.011659 -0.03921,-0.0053 -0.07419,-0.0053 -0.04451,0 -0.07525,0.00848 -0.03074,0.00848 -0.04981,0.023317 -0.01908,0.013778 -0.02756,0.032856 -0.0085,0.018018 -0.0085,0.038155 0,0.034975 0.01802,0.057232 0.01908,0.022257 0.05193,0.036035 0.03286,0.013778 0.06889,0.023317 0.03603,0.00848 0.06995,0.016958 0.05299,0.012718 0.105986,0.030736 0.05299,0.018018 0.09539,0.050873 0.04239,0.031796 0.06889,0.083729 0.02756,0.050873 0.02756,0.1303625 0,0.086908 -0.03286,0.1515598 -0.03286,0.064651 -0.09221,0.1081055 -0.05829,0.042394 -0.140961,0.062532 -0.08161,0.021197 -0.180176,0.021197 -0.09751,0 -0.175936,-0.015898 -0.07737,-0.014838 -0.128243,-0.038155 V 7.304686 q 0.08267,0.030736 0.15262,0.042394 0.06995,0.010599 0.130362,0.010599 0.04663,0 0.08691,-0.00636 0.04028,-0.00742 0.06889,-0.022257 0.02968,-0.014838 0.04663,-0.037095 0.01696,-0.023317 0.01696,-0.055113 z M 68.65701,7.0217039 q 0,-0.081609 -0.01908,-0.1441408 -0.01908,-0.062532 -0.05299,-0.104926 -0.03391,-0.042394 -0.08161,-0.063592 -0.04769,-0.021197 -0.103866,-0.021197 -0.05511,0 -0.102806,0.021197 -0.04663,0.021197 -0.08055,0.063592 -0.03391,0.042394 -0.05299,0.104926 -0.01908,0.062532 -0.01908,0.1441408 0,0.081609 0.01908,0.1441407 0.01908,0.062532 0.05299,0.104926 0.03498,0.041334 0.08161,0.063592 0.04769,0.021197 0.103866,0.021197 0.05617,0 0.102806,-0.021197 0.04663,-0.022257 0.08055,-0.063592 0.03392,-0.042394 0.05299,-0.104926 0.01908,-0.062532 0.01908,-0.1441407 z m 0.259665,0 q 0,0.1208238 -0.03603,0.2204505 -0.03604,0.099627 -0.103866,0.1706372 -0.06677,0.07101 -0.162159,0.1102253 -0.09539,0.038155 -0.213031,0.038155 -0.120824,0 -0.217271,-0.038155 -0.09539,-0.039215 -0.162159,-0.1102253 -0.06677,-0.07101 -0.102806,-0.1706372 -0.03498,-0.099627 -0.03498,-0.2204505 0,-0.1208239 0.03603,-0.2204506 0.03603,-0.099627 0.102806,-0.1706372 0.06783,-0.07101 0.163218,-0.1091654 0.09539,-0.039215 0.213032,-0.039215 0.120824,0 0.216211,0.039215 0.09645,0.038155 0.163218,0.1091654 0.06677,0.07101 0.101747,0.1706372 0.03603,0.099627 0.03603,0.2204506 z m 0.453619,-0.3709505 h 0.0042 q 0.02226,-0.031796 0.05617,-0.062532 0.03392,-0.030736 0.07737,-0.054053 0.04345,-0.023317 0.09539,-0.037095 0.05299,-0.014838 0.112345,-0.014838 0.05617,0 0.108106,0.012718 0.05299,0.012718 0.09645,0.040275 0.04345,0.026496 0.07631,0.069951 0.03392,0.042394 0.05299,0.1017464 0.0106,0.032856 0.01378,0.07207 0.0042,0.038155 0.0042,0.089028 v 0.6666515 h -0.25111 V 6.9072391 q 0,-0.041334 -0.0032,-0.07101 -0.0032,-0.029676 -0.01166,-0.051933 -0.01908,-0.048754 -0.05829,-0.069951 -0.03815,-0.021197 -0.09327,-0.021197 -0.07313,0 -0.140961,0.034975 -0.06677,0.033915 -0.118704,0.099627 V 7.5346753 H 69.139245 V 6.5076725 h 0.207732 z m 1.454126,0.032856 q -0.06571,0.00106 -0.125063,0.032856 -0.05935,0.030736 -0.104926,0.083729 v 0.4578588 q 0.0159,0.018018 0.03816,0.036035 0.02226,0.018018 0.04981,0.032856 0.02756,0.014838 0.06041,0.024377 0.03391,0.00954 0.06995,0.00954 0.05829,0 0.103866,-0.024377 0.04557,-0.025437 0.07525,-0.07101 0.03073,-0.045574 0.04663,-0.1081056 0.0159,-0.063592 0.0159,-0.1409611 0,-0.082669 -0.01696,-0.1452006 -0.0159,-0.062532 -0.04663,-0.1038662 -0.02968,-0.041334 -0.07207,-0.062532 -0.04239,-0.021197 -0.09433,-0.021197 z m 0.03286,0.8775628 q -0.08267,0 -0.1505,-0.029676 -0.06677,-0.030736 -0.111285,-0.07525 h -0.0042 q 0.0011,0.021197 0.0021,0.060412 0.0011,0.038155 0.0011,0.083729 V 8.0275094 H 70.343244 V 6.5076725 h 0.220451 l 0.0106,0.1155246 h 0.0042 q 0.04663,-0.061472 0.119764,-0.1006865 0.07313,-0.040275 0.169577,-0.040275 0.08373,0 0.164278,0.031796 0.08161,0.030736 0.144141,0.095387 0.06253,0.064651 0.09963,0.1632182 0.03816,0.098567 0.03816,0.2342287 0,0.1430809 -0.04028,0.2480069 -0.04027,0.1038661 -0.105986,0.1727569 -0.06571,0.067831 -0.14626,0.1006865 -0.07949,0.032856 -0.164278,0.032856 z m 0.685728,-1.0534993 h 0.251187 v 1.0270028 h -0.251187 z m -0.0064,-0.5076721 h 0.263905 v 0.2723836 h -0.263905 z m 1.020644,0.6836086 q -0.06571,0.00106 -0.125064,0.032856 -0.05935,0.030736 -0.104926,0.083729 v 0.4578588 q 0.0159,0.018018 0.03816,0.036035 0.02226,0.018018 0.04981,0.032856 0.02756,0.014838 0.06041,0.024377 0.03391,0.00954 0.06995,0.00954 0.05829,0 0.103866,-0.024377 0.04557,-0.025437 0.07525,-0.07101 0.03074,-0.045574 0.04663,-0.1081056 0.0159,-0.063592 0.0159,-0.1409611 0,-0.082669 -0.01696,-0.1452006 -0.0159,-0.062532 -0.04663,-0.1038662 -0.02968,-0.041334 -0.07207,-0.062532 -0.04239,-0.021197 -0.09433,-0.021197 z m 0.03285,0.8775628 q -0.08267,0 -0.1505,-0.029676 -0.06677,-0.030736 -0.111285,-0.07525 h -0.0042 q 0.0011,0.021197 0.0021,0.060412 0.0011,0.038155 0.0011,0.083729 V 8.0275094 H 72.076113 V 6.5076725 h 0.22045 l 0.0106,0.1155246 h 0.0042 q 0.04663,-0.061472 0.119764,-0.1006865 0.07313,-0.040275 0.169578,-0.040275 0.08373,0 0.164278,0.031796 0.08161,0.030736 0.144141,0.095387 0.06253,0.064651 0.09963,0.1632182 0.03816,0.098567 0.03816,0.2342287 0,0.1430809 -0.04027,0.2480069 -0.04028,0.1038661 -0.105986,0.1727569 -0.06571,0.067831 -0.146261,0.1006865 -0.07949,0.032856 -0.164278,0.032856 z m 1.283489,-0.1356619 h -0.0042 q -0.0212,0.022257 -0.05087,0.045574 -0.02968,0.023317 -0.06783,0.044514 -0.03816,0.020137 -0.08479,0.032856 -0.04663,0.012718 -0.100686,0.012718 -0.07313,0 -0.136722,-0.023317 -0.06359,-0.022257 -0.109165,-0.064651 -0.04557,-0.043454 -0.07207,-0.1038661 -0.02544,-0.061472 -0.02544,-0.1367217 0,-0.082669 0.02968,-0.1483802 0.03074,-0.065711 0.08479,-0.1112851 0.05405,-0.045574 0.129303,-0.068891 0.07525,-0.024377 0.166398,-0.024377 0.06677,0 0.122943,0.00848 0.05617,0.00848 0.09857,0.020137 v -0.041335 q 0,-0.036035 -0.01272,-0.068891 -0.01166,-0.033915 -0.03921,-0.059352 -0.0265,-0.026496 -0.06995,-0.041334 -0.04345,-0.015898 -0.105986,-0.015898 -0.07631,0 -0.15262,0.016958 -0.07631,0.016958 -0.165338,0.050873 V 6.5532465 q 0.07737,-0.033915 0.164278,-0.051933 0.08691,-0.018018 0.182296,-0.019077 0.112345,0 0.196074,0.027556 0.08479,0.027556 0.140961,0.07631 0.05723,0.047694 0.08479,0.1134048 0.02862,0.065711 0.02862,0.1430809 v 0.3868483 q 0,0.1017464 0.0021,0.1748766 0.0021,0.07313 0.0042,0.1303626 h -0.22681 z m -0.02014,-0.3285561 q -0.03603,-0.00848 -0.08267,-0.014838 -0.04663,-0.00742 -0.09433,-0.00742 -0.09221,0 -0.146261,0.037095 -0.05299,0.036035 -0.05299,0.1112851 0,0.034975 0.01166,0.061472 0.01272,0.025437 0.03286,0.042394 0.0212,0.016958 0.04875,0.025437 0.02756,0.00848 0.05829,0.00848 0.03816,0 0.07207,-0.00954 0.03392,-0.010599 0.06253,-0.025437 0.02862,-0.015898 0.05087,-0.034975 0.02332,-0.019077 0.03921,-0.037095 z m 1.730748,0.3052392 q -0.02014,0.023317 -0.05193,0.047694 -0.03073,0.023317 -0.06995,0.042394 -0.03922,0.019077 -0.08691,0.030736 -0.04663,0.011658 -0.09857,0.011658 -0.07101,0 -0.131423,-0.022257 -0.05935,-0.022257 -0.103866,-0.062532 -0.04345,-0.041334 -0.06783,-0.098567 -0.02438,-0.058292 -0.02438,-0.1303626 0,-0.079489 0.02862,-0.1409611 0.02862,-0.062532 0.07949,-0.104926 0.05193,-0.043454 0.122943,-0.065711 0.07207,-0.023317 0.158979,-0.023317 0.07101,0 0.121884,0.00848 0.05087,0.00848 0.08797,0.018018 v -0.039215 q 0,-0.033915 -0.01166,-0.065711 -0.01166,-0.031796 -0.0371,-0.056172 -0.02544,-0.024377 -0.06677,-0.039215 -0.04133,-0.014838 -0.100687,-0.014838 -0.07313,0 -0.145201,0.016958 -0.07207,0.015898 -0.156859,0.047694 V 6.5755035 q 0.03074,-0.014838 0.06889,-0.026496 0.03816,-0.012718 0.08055,-0.021197 0.04345,-0.00954 0.08903,-0.014838 0.04557,-0.0053 0.09115,-0.0053 0.107046,0 0.186535,0.026497 0.08055,0.025437 0.133543,0.07207 0.05299,0.045574 0.07949,0.1081055 0.02756,0.062532 0.02756,0.1356619 v 0.4133448 q 0,0.023317 0.0021,0.042394 0.0032,0.019077 0.0106,0.032856 0.0085,0.013778 0.02226,0.021197 0.01378,0.00742 0.03498,0.00742 0.04981,0 0.09327,-0.029676 0.04345,-0.029676 0.07525,-0.083729 0.0318,-0.055113 0.04981,-0.1335421 0.01908,-0.07843 0.01908,-0.1759365 0,-0.1716971 -0.05723,-0.2999399 -0.05723,-0.1282429 -0.155799,-0.2140914 -0.09751,-0.085848 -0.22893,-0.1282429 -0.130362,-0.042394 -0.277683,-0.042394 -0.198193,0 -0.340214,0.065711 -0.142021,0.064651 -0.233169,0.1738168 -0.09009,0.1091654 -0.133542,0.2511864 -0.04239,0.1409612 -0.04239,0.2935808 0,0.1632182 0.04875,0.3031195 0.04875,0.1388414 0.14626,0.2405878 0.09857,0.1028063 0.245888,0.1600386 0.14732,0.058292 0.344454,0.058292 0.08797,0 0.170637,-0.00954 0.08373,-0.00848 0.157919,-0.023317 0.07419,-0.014838 0.136721,-0.033915 0.06359,-0.018018 0.110226,-0.038155 v 0.1695773 q -0.04769,0.019077 -0.114465,0.037095 -0.06571,0.019077 -0.143081,0.032856 -0.07631,0.014838 -0.160039,0.023317 -0.08267,0.00848 -0.164278,0.00848 -0.136721,0 -0.260725,-0.027556 -0.123958,-0.026498 -0.232064,-0.080551 -0.107045,-0.052993 -0.195014,-0.1314224 -0.08691,-0.07737 -0.14838,-0.1801759 -0.06147,-0.1017464 -0.09539,-0.2268097 -0.03392,-0.1250633 -0.03392,-0.2723836 0,-0.2140914 0.06571,-0.3910877 0.06571,-0.1780562 0.187595,-0.3052392 0.121883,-0.127183 0.29464,-0.1971337 0.173817,-0.069951 0.388968,-0.069951 0.198194,0 0.363532,0.061472 0.166397,0.060412 0.286161,0.1716971 0.120824,0.1102253 0.187595,0.2649646 0.06783,0.1547393 0.06783,0.3433941 0,0.1462604 -0.03497,0.2586054 -0.03498,0.112345 -0.09751,0.1897147 -0.06253,0.07631 -0.14838,0.1155245 -0.08479,0.039215 -0.185475,0.039215 -0.05193,0 -0.08903,-0.00954 -0.0371,-0.00954 -0.06465,-0.026497 -0.0265,-0.018018 -0.04451,-0.042394 -0.01696,-0.024377 -0.02862,-0.054053 z m -0.03498,-0.3105385 q -0.03392,-0.00742 -0.07631,-0.013778 -0.04239,-0.00742 -0.09115,-0.00742 -0.08691,0 -0.138842,0.033915 -0.05087,0.033915 -0.05087,0.1070457 0,0.033915 0.01166,0.059352 0.01166,0.024377 0.03074,0.040275 0.02014,0.015898 0.04663,0.024377 0.0265,0.00742 0.05511,0.00742 0.03603,0 0.06783,-0.00954 0.03285,-0.00954 0.05935,-0.024377 0.02756,-0.014838 0.04875,-0.032856 0.02226,-0.018018 0.03709,-0.034975 z m 1.72757,0.4695173 q 0,-0.021197 0,-0.051933 0.0011,-0.031796 0.0032,-0.052993 h -0.0021 q -0.02332,0.019077 -0.05405,0.038155 -0.02968,0.018018 -0.06571,0.033915 -0.03604,0.014838 -0.07949,0.023317 -0.04345,0.00954 -0.08903,0.00954 -0.08161,0 -0.160039,-0.028616 -0.07737,-0.029676 -0.137781,-0.092208 -0.06041,-0.063591 -0.09751,-0.1621583 -0.0371,-0.098567 -0.0371,-0.2374083 0,-0.1388414 0.0371,-0.2427076 0.03815,-0.1049259 0.100686,-0.1748766 0.06253,-0.069951 0.143081,-0.104926 0.08161,-0.036035 0.167458,-0.036035 0.09433,0 0.167458,0.040275 0.07313,0.039215 0.119764,0.1006865 h 0.0042 l 0.0106,-0.1155246 h 0.22045 v 1.0460802 q 0,0.090088 -0.01484,0.1547394 -0.01484,0.064651 -0.04345,0.1144647 -0.03392,0.058292 -0.08691,0.1017464 -0.05193,0.043454 -0.119764,0.07207 -0.06677,0.028616 -0.147321,0.042394 -0.08055,0.014838 -0.170637,0.014838 -0.05087,0 -0.09963,-0.00424 -0.04875,-0.00318 -0.09221,-0.010599 -0.04239,-0.00636 -0.07843,-0.015898 -0.03498,-0.00848 -0.05935,-0.018018 V 7.8006997 q 0.06995,0.023317 0.146261,0.034975 0.07737,0.012718 0.162158,0.012718 0.168517,0 0.260725,-0.065711 0.09221,-0.064651 0.09221,-0.1971337 z m -0.22469,-0.2003133 q 0.03815,0 0.07207,-0.00954 0.03392,-0.00954 0.06253,-0.024377 0.02862,-0.014838 0.05087,-0.032856 0.02332,-0.018018 0.03921,-0.036035 V 6.7991336 q -0.04027,-0.047694 -0.09963,-0.079489 -0.05935,-0.031796 -0.126123,-0.032856 -0.02332,0 -0.04981,0.00636 -0.02544,0.0053 -0.05193,0.020137 -0.0265,0.014838 -0.05087,0.040275 -0.02332,0.024377 -0.04133,0.062532 -0.01802,0.038155 -0.02968,0.091148 -0.0106,0.052993 -0.0106,0.1229436 0,0.07737 0.01484,0.1388415 0.01484,0.060412 0.04451,0.1038661 0.02968,0.042394 0.07313,0.065711 0.04451,0.022257 0.102807,0.022257 z m 2.074142,-0.4514996 q 0,-0.032856 -0.0021,-0.061472 -0.0021,-0.028616 -0.0074,-0.049813 -0.01166,-0.046634 -0.04557,-0.07525 -0.03392,-0.028616 -0.09539,-0.029676 -0.03286,0 -0.06783,0.00954 -0.03498,0.00954 -0.06995,0.027556 -0.03392,0.016958 -0.06571,0.042394 -0.03074,0.024377 -0.05617,0.055113 v 0.706924 H 78.464939 V 6.9093589 q 0,-0.032856 -0.0021,-0.061472 -0.0021,-0.028616 -0.0074,-0.049813 -0.01166,-0.046634 -0.04557,-0.07525 -0.03285,-0.028616 -0.09539,-0.029676 -0.03286,0 -0.06783,0.00954 -0.03498,0.00954 -0.06995,0.027556 -0.03391,0.016958 -0.06571,0.042394 -0.03074,0.024377 -0.05617,0.055113 V 7.5346753 H 77.803587 V 6.5076725 h 0.207732 l 0.02332,0.1430809 h 0.0042 q 0.02226,-0.031796 0.05617,-0.062532 0.03392,-0.030736 0.07631,-0.054053 0.04345,-0.023317 0.09433,-0.037095 0.05193,-0.014838 0.109166,-0.014838 0.101746,0 0.182295,0.045574 0.08161,0.044514 0.124004,0.1399013 h 0.0042 q 0.02968,-0.041334 0.06571,-0.07525 0.0371,-0.033915 0.08161,-0.058292 0.04451,-0.024377 0.09539,-0.038155 0.05193,-0.013778 0.110225,-0.013778 0.110225,0.00106 0.184415,0.046634 0.07525,0.044514 0.115525,0.1229436 0.0106,0.020137 0.01802,0.044514 0.0074,0.023317 0.01166,0.052993 0.0053,0.029676 0.0074,0.065711 0.0021,0.036035 0.0021,0.082669 v 0.6369749 h -0.251187 z m 1.130868,0.516151 h -0.0042 q -0.0212,0.022257 -0.05087,0.045574 -0.02968,0.023317 -0.06783,0.044514 -0.03816,0.020137 -0.08479,0.032856 -0.04663,0.012718 -0.100686,0.012718 -0.07313,0 -0.136722,-0.023317 -0.06359,-0.022257 -0.109165,-0.064651 -0.04557,-0.043454 -0.07207,-0.1038661 -0.02544,-0.061472 -0.02544,-0.1367217 0,-0.082669 0.02968,-0.1483802 0.03074,-0.065711 0.08479,-0.1112851 0.05405,-0.045574 0.129303,-0.068891 0.07525,-0.024377 0.166398,-0.024377 0.06677,0 0.122943,0.00848 0.05617,0.00848 0.09857,0.020137 v -0.041335 q 0,-0.036035 -0.01272,-0.068891 -0.01166,-0.033915 -0.03921,-0.059352 -0.0265,-0.026496 -0.06995,-0.041334 -0.04345,-0.015898 -0.105985,-0.015898 -0.07631,0 -0.15262,0.016958 -0.07631,0.016958 -0.165338,0.050873 V 6.5532465 q 0.07737,-0.033915 0.164278,-0.051933 0.08691,-0.018018 0.182296,-0.019077 0.112345,0 0.196074,0.027556 0.08479,0.027556 0.140961,0.07631 0.05723,0.047694 0.08479,0.1134048 0.02862,0.065711 0.02862,0.1430809 v 0.3868483 q 0,0.1017464 0.0021,0.1748766 0.0021,0.07313 0.0042,0.1303626 h -0.22681 z m -0.02014,-0.3285561 q -0.03603,-0.00848 -0.08267,-0.014838 -0.04663,-0.00742 -0.09433,-0.00742 -0.09221,0 -0.146261,0.037095 -0.05299,0.036035 -0.05299,0.1112851 0,0.034975 0.01166,0.061472 0.01272,0.025437 0.03285,0.042394 0.0212,0.016958 0.04875,0.025437 0.02756,0.00848 0.05829,0.00848 0.03815,0 0.07207,-0.00954 0.03391,-0.010599 0.06253,-0.025437 0.02862,-0.015898 0.05087,-0.034975 0.02332,-0.019077 0.03921,-0.037095 z m 0.539469,-0.5892813 h 0.251187 v 1.0270028 h -0.251187 z m -0.0064,-0.5076721 h 0.263905 v 0.2723836 h -0.263905 z m 0.550066,1.5346749 V 6.0000004 h 0.251186 v 1.5346749 z m 0.574443,-0.2829822 h 0.285102 v 0.2829822 h -0.285102 z m 1.337541,0.2607252 q -0.04769,0.020137 -0.116584,0.033915 -0.06889,0.014838 -0.145201,0.014838 -0.111285,0 -0.207732,-0.031796 -0.09645,-0.031796 -0.168517,-0.096447 -0.07207,-0.064651 -0.113405,-0.1632182 -0.04133,-0.099627 -0.04133,-0.232109 0,-0.1483801 0.04769,-0.254366 0.04769,-0.1059858 0.122944,-0.171697 0.07631,-0.066771 0.170637,-0.097507 0.09539,-0.031796 0.187595,-0.031796 0.06889,0 0.132482,0.012718 0.06359,0.011659 0.115525,0.032856 v 0.2045526 q -0.04663,-0.020137 -0.09963,-0.031796 -0.05193,-0.012718 -0.112345,-0.012718 -0.06041,0 -0.115525,0.019077 -0.05511,0.018018 -0.09751,0.058292 -0.04239,0.040275 -0.06783,0.1070457 -0.02438,0.065711 -0.02438,0.1589788 0,0.067831 0.01908,0.1282428 0.01908,0.059352 0.05511,0.1017464 0.03709,0.042394 0.09327,0.068891 0.05723,0.025437 0.134602,0.025437 0.06889,0 0.125064,-0.013778 0.05617,-0.013778 0.105985,-0.033915 z m 0.937008,-0.4907148 q 0,-0.081609 -0.01908,-0.1441408 -0.01908,-0.062532 -0.05299,-0.104926 -0.03392,-0.042394 -0.08161,-0.063592 -0.04769,-0.021197 -0.103866,-0.021197 -0.05511,0 -0.102806,0.021197 -0.04663,0.021197 -0.08055,0.063592 -0.03392,0.042394 -0.05299,0.104926 -0.01908,0.062532 -0.01908,0.1441408 0,0.081609 0.01908,0.1441407 0.01908,0.062532 0.05299,0.104926 0.03498,0.041334 0.08161,0.063592 0.04769,0.021197 0.103867,0.021197 0.05617,0 0.102806,-0.021197 0.04663,-0.022257 0.08055,-0.063592 0.03392,-0.042394 0.05299,-0.104926 0.01908,-0.062532 0.01908,-0.1441407 z m 0.259666,0 q 0,0.1208238 -0.03603,0.2204505 -0.03604,0.099627 -0.103867,0.1706372 -0.06677,0.07101 -0.162158,0.1102253 -0.09539,0.038155 -0.213031,0.038155 -0.120824,0 -0.217271,-0.038155 -0.09539,-0.039215 -0.162159,-0.1102253 -0.06677,-0.07101 -0.102806,-0.1706372 -0.03498,-0.099627 -0.03498,-0.2204505 0,-0.1208239 0.03604,-0.2204506 0.03603,-0.099627 0.102806,-0.1706372 0.06783,-0.07101 0.163218,-0.1091654 0.09539,-0.039215 0.213032,-0.039215 0.120824,0 0.216211,0.039215 0.09645,0.038155 0.163218,0.1091654 0.06677,0.07101 0.101747,0.1706372 0.03603,0.099627 0.03603,0.2204506 z m 1.545273,-0.112345 q 0,-0.032856 -0.0021,-0.061472 -0.0021,-0.028616 -0.0074,-0.049813 -0.01166,-0.046634 -0.04557,-0.07525 -0.03392,-0.028616 -0.09539,-0.029676 -0.03285,0 -0.06783,0.00954 -0.03498,0.00954 -0.06995,0.027556 -0.03392,0.016958 -0.06571,0.042394 -0.03074,0.024377 -0.05617,0.055113 V 7.5346753 H 85.312684 V 6.9093589 q 0,-0.032856 -0.0021,-0.061472 -0.0021,-0.028616 -0.0074,-0.049813 -0.01166,-0.046634 -0.04557,-0.07525 -0.03286,-0.028616 -0.09539,-0.029676 -0.03286,0 -0.06783,0.00954 -0.03498,0.00954 -0.06995,0.027556 -0.03391,0.016958 -0.06571,0.042394 -0.03074,0.024377 -0.05617,0.055113 V 7.5346753 H 84.651332 V 6.5076725 h 0.207732 l 0.02332,0.1430809 h 0.0042 q 0.02226,-0.031796 0.05617,-0.062532 0.03392,-0.030736 0.07631,-0.054053 0.04345,-0.023317 0.09433,-0.037095 0.05193,-0.014838 0.109166,-0.014838 0.101746,0 0.182295,0.045574 0.08161,0.044514 0.124004,0.1399013 h 0.0042 q 0.02968,-0.041334 0.06571,-0.07525 0.0371,-0.033915 0.08161,-0.058292 0.04451,-0.024377 0.09539,-0.038155 0.05193,-0.013778 0.110225,-0.013778 0.110225,0.00106 0.184415,0.046634 0.07525,0.044514 0.115525,0.1229436 0.0106,0.020137 0.01802,0.044514 0.0074,0.023317 0.01166,0.052993 0.0053,0.029676 0.0074,0.065711 0.0021,0.036035 0.0021,0.082669 v 0.6369749 h -0.251187 z"
         id="path102"
         style="font-weight:bold;font-size:2.17059px;font-family:Corbel;-inkscape-font-specification:'Corbel, Bold';text-align:end;text-anchor:end;stroke-width:2.64541" /><path
         d="m 60.532512,39.468744 h -0.429189 l -0.111555,0.290384 h -0.222259 l 0.452182,-1.139396 h 0.19075 l 0.452182,1.139396 h -0.220555 z m -0.216298,-0.574808 q -0.05961,0.178829 -0.106445,0.2989 l -0.03917,0.101337 h 0.294642 l -0.03917,-0.101337 q -0.04683,-0.120922 -0.106445,-0.2989 z m 0.91884,-0.274204 v 0.964825 h 0.533081 v 0.174571 h -0.741714 v -1.139396 z m 1.381241,0.849012 h -0.42919 l -0.111554,0.290384 h -0.222259 l 0.452181,-1.139396 h 0.190751 l 0.452182,1.139396 H 62.72785 Z m -0.216298,-0.574808 q -0.05961,0.178829 -0.106446,0.2989 l -0.03917,0.101337 h 0.294641 l -0.03917,-0.101337 q -0.04683,-0.120922 -0.106445,-0.2989 z m 1.296083,0.559479 q 0.03747,-0.134547 0.09282,-0.288681 l 0.196712,-0.545002 h 0.292939 v 1.139396 h -0.208633 v -0.577362 q 0,-0.126883 0.01022,-0.294642 h -0.0076 q -0.01448,0.04854 -0.03407,0.109 -0.01959,0.06046 -0.04087,0.11922 l -0.235884,0.643784 h -0.134579 l -0.235884,-0.643784 q -0.02129,-0.05876 -0.04087,-0.11922 -0.01959,-0.06046 -0.03406,-0.109 h -0.0076 q 0.01022,0.157539 0.01022,0.29379 v 0.578214 h -0.208634 v -1.139396 h 0.291236 l 0.196712,0.542448 q 0.04939,0.135398 0.09282,0.291235 z m 1.063606,0.131142 h 0.560331 v 0.174571 h -0.768964 v -1.139396 h 0.738308 v 0.174571 h -0.529675 v 0.294642 h 0.454737 v 0.174571 h -0.454737 z m 0.781738,0.174571 v -1.139396 h 0.301455 q 0.04002,0 0.0809,0.0026 0.04172,0.0026 0.0809,0.0076 0.03917,0.0051 0.07579,0.01277 0.03661,0.0068 0.06727,0.01703 0.09112,0.02896 0.160947,0.07835 0.06983,0.04939 0.116664,0.116665 0.04769,0.06728 0.07153,0.150728 0.0247,0.0826 0.0247,0.17968 0,0.09197 -0.02044,0.172868 -0.02044,0.08005 -0.06216,0.146469 -0.04172,0.06642 -0.105594,0.117516 -0.06302,0.05024 -0.149876,0.0826 -0.07238,0.02725 -0.164352,0.04087 -0.09197,0.01363 -0.206931,0.01363 z m 0.294642,-0.174571 q 0.183087,0 0.286127,-0.05024 0.09112,-0.04513 0.137953,-0.131141 0.04684,-0.08601 0.04684,-0.219705 0,-0.06983 -0.01533,-0.126032 -0.01533,-0.0562 -0.04428,-0.09963 -0.02895,-0.04428 -0.07068,-0.07579 -0.04087,-0.0315 -0.09282,-0.05194 -0.04854,-0.01874 -0.108149,-0.02725 -0.05961,-0.0085 -0.133696,-0.0085 h -0.09197 v 0.790254 z m 1.559218,-0.115813 h -0.429189 l -0.111556,0.290384 h -0.222258 l 0.452181,-1.139396 h 0.190751 l 0.452182,1.139396 h -0.220556 z m -0.216298,-0.574808 q -0.05961,0.178829 -0.106446,0.2989 l -0.03917,0.101337 h 0.294642 l -0.03917,-0.101337 q -0.04684,-0.120922 -0.106446,-0.2989 z m 1.587319,0.53819 q 0,-0.04343 -0.02129,-0.06983 -0.02129,-0.02725 -0.05791,-0.04428 -0.03661,-0.01703 -0.0826,-0.02725 -0.04513,-0.01107 -0.09538,-0.02129 -0.06642,-0.01448 -0.126883,-0.03406 -0.06046,-0.02044 -0.106446,-0.05535 -0.04598,-0.03576 -0.07324,-0.09027 -0.02725,-0.0545 -0.02725,-0.13625 0,-0.09027 0.0315,-0.156688 0.0315,-0.06728 0.08516,-0.110704 0.0545,-0.04428 0.126882,-0.06557 0.07324,-0.02214 0.164353,-0.02214 0.09112,0 0.183087,0.01788 0.09197,0.01788 0.158391,0.04598 v 0.178828 q -0.08856,-0.03491 -0.170313,-0.05024 -0.0809,-0.01618 -0.15243,-0.01618 -0.10304,0 -0.159243,0.03747 -0.05535,0.03747 -0.05535,0.112407 0,0.04343 0.01789,0.07153 0.01874,0.02811 0.05024,0.04683 0.0315,0.01788 0.07238,0.02895 0.04087,0.01107 0.08686,0.02044 0.07238,0.01533 0.137954,0.03577 0.06642,0.01959 0.117516,0.05535 0.05109,0.03576 0.0809,0.09367 0.0298,0.05705 0.0298,0.146469 0,0.09197 -0.03406,0.159243 -0.03406,0.06728 -0.09708,0.111555 -0.06217,0.04343 -0.151579,0.06472 -0.08941,0.02129 -0.19586,0.02129 -0.09282,0 -0.183087,-0.01874 -0.08942,-0.01788 -0.149024,-0.05109 v -0.176275 q 0.08431,0.03661 0.164352,0.05365 0.08005,0.01618 0.165204,0.01618 0.04939,0 0.09708,-0.0076 0.04769,-0.0085 0.08516,-0.0281 0.03832,-0.01959 0.06131,-0.0528 0.023,-0.03406 0.023,-0.08345 z m 0.44622,0.327002 v -1.139396 h 0.208634 v 1.139396 z m 1.074677,-0.609722 q 0.122626,0.174571 0.199267,0.30997 h 0.0051 q -0.01022,-0.222259 -0.01022,-0.323595 v -0.516049 h 0.208633 v 1.139396 H 70.47113 l -0.371283,-0.524565 q -0.09793,-0.136251 -0.202673,-0.315932 h -0.0051 q 0.01022,0.209486 0.01022,0.324447 v 0.51605 h -0.208633 v -1.139396 h 0.218852 z m 0.883926,-0.529674 v 0.964825 h 0.53308 v 0.174571 h -0.741715 v -1.139396 z m 0.72894,1.139396 v -1.139396 h 0.208634 v 1.139396 z m 1.325037,-0.569698 q 0,-0.103891 -0.02555,-0.181384 -0.02555,-0.07835 -0.07068,-0.13029 -0.04513,-0.05194 -0.107297,-0.07749 -0.06216,-0.02555 -0.136251,-0.02555 -0.07409,0 -0.136251,0.02555 -0.06216,0.02555 -0.107297,0.07749 -0.04513,0.05195 -0.07068,0.13029 -0.02555,0.07749 -0.02555,0.181384 0,0.103891 0.02555,0.182235 0.02555,0.07749 0.07068,0.129438 0.04513,0.05109 0.107297,0.07749 0.06216,0.02554 0.136251,0.02554 0.07409,0 0.136251,-0.02554 0.06216,-0.0264 0.107297,-0.07749 0.04513,-0.05194 0.07068,-0.129438 0.02555,-0.07835 0.02555,-0.182235 z m 0.215446,0 q 0,0.13029 -0.03747,0.23929 -0.03661,0.108149 -0.108149,0.186492 -0.07068,0.07835 -0.174571,0.121775 -0.103039,0.04343 -0.235031,0.04343 -0.131993,0 -0.235884,-0.04343 -0.10304,-0.04343 -0.174572,-0.121775 -0.07068,-0.07835 -0.108148,-0.186492 -0.03661,-0.109 -0.03661,-0.23929 0,-0.13029 0.03661,-0.238439 0.03746,-0.109 0.108148,-0.187344 0.07153,-0.07835 0.174572,-0.121775 0.103891,-0.04343 0.235884,-0.04343 0.131992,0 0.235031,0.04343 0.103891,0.04343 0.174571,0.121775 0.07153,0.07835 0.108149,0.187344 0.03747,0.108149 0.03747,0.238439 z m 0.221408,0.569698 v -1.139396 h 0.208633 v 0.518604 h 0.0034 l 0.43004,-0.518604 h 0.258876 l -0.475174,0.564588 0.514347,0.574808 h -0.267392 l -0.460697,-0.514346 h -0.0034 v 0.514346 z m 1.573694,0.02129 q -0.08942,0 -0.160947,-0.01788 -0.07153,-0.01703 -0.126032,-0.04939 -0.0545,-0.03321 -0.09282,-0.08005 -0.03832,-0.04769 -0.06131,-0.107298 -0.01874,-0.04769 -0.02725,-0.105594 -0.0076,-0.05791 -0.0076,-0.129438 v -0.671034 h 0.208634 v 0.6523 q 0,0.120922 0.02895,0.189047 0.03236,0.07579 0.09452,0.109853 0.06217,0.03321 0.146469,0.03321 0.08431,0 0.14647,-0.03321 0.06216,-0.03406 0.09452,-0.109853 0.02896,-0.06813 0.02896,-0.189047 v -0.6523 h 0.208634 v 0.671034 q 0,0.07153 -0.0085,0.129438 -0.0076,0.05791 -0.0264,0.105594 -0.02299,0.05961 -0.06217,0.107298 -0.03832,0.04683 -0.09452,0.08005 -0.05535,0.03236 -0.127734,0.04939 -0.07238,0.01788 -0.161798,0.01788 z m 1.455327,-0.02129 h -0.208634 v -0.964825 h -0.367877 v -0.174571 h 0.943536 v 0.174571 H 76.69098 Z m 1.087448,-0.290384 h -0.42919 l -0.111554,0.290384 h -0.222259 l 0.452182,-1.139396 h 0.19075 l 0.452182,1.139396 H 77.889983 Z M 77.56213,38.893936 q -0.05961,0.178829 -0.106445,0.2989 l -0.03917,0.101337 h 0.294641 l -0.03917,-0.101337 q -0.04683,-0.120922 -0.106446,-0.2989 z m 1.303749,0.25547 q 0.122626,0.174571 0.199266,0.30997 h 0.0051 q -0.01022,-0.222259 -0.01022,-0.323595 v -0.516049 h 0.208635 v 1.139396 h -0.218853 l -0.371283,-0.524565 q -0.09793,-0.136251 -0.202673,-0.315932 h -0.0051 q 0.01022,0.209486 0.01022,0.324447 v 0.51605 h -0.208634 v -1.139396 h 0.218853 z m 1.32759,0.319338 H 79.76428 l -0.111555,0.290384 h -0.222259 l 0.452182,-1.139396 h 0.19075 l 0.452182,1.139396 h -0.220555 z m -0.216298,-0.574808 q -0.05961,0.178829 -0.106445,0.2989 l -0.03917,0.101337 h 0.294638 l -0.03917,-0.101337 q -0.04683,-0.120922 -0.106445,-0.2989 z m 0.710208,0.865192 v -1.139396 h 0.208634 v 0.518604 h 0.0034 l 0.430042,-0.518604 h 0.25885 l -0.475174,0.564588 0.514345,0.574808 h -0.267391 l -0.460698,-0.514346 h -0.0034 v 0.514346 z m 1.754225,-0.290384 h -0.429188 l -0.111556,0.290384 h -0.222259 l 0.452182,-1.139396 h 0.190751 l 0.452181,1.139396 H 82.55316 Z m -0.216297,-0.574808 q -0.05961,0.178829 -0.106446,0.2989 l -0.03917,0.101337 h 0.294642 l -0.03917,-0.101337 q -0.04684,-0.120922 -0.106446,-0.2989 z m 0.745972,0.637823 h 0.235884 l -0.183939,0.577362 h -0.215446 z m 1.469803,-0.345735 q 0,0.06131 -0.02555,0.114109 -0.0247,0.0528 -0.06898,0.101337 -0.04343,0.04854 -0.103892,0.09537 -0.06046,0.04598 -0.131141,0.09452 v 0.0034 q 0.117516,-0.0068 0.174571,-0.0068 h 0.223111 v 0.171165 h -0.721277 v -0.123478 q 0.08942,-0.06131 0.170313,-0.12007 0.0809,-0.05961 0.14136,-0.113259 0.06131,-0.0545 0.09708,-0.105594 0.03576,-0.05109 0.03576,-0.100485 0,-0.02981 -0.01107,-0.05024 -0.01107,-0.02044 -0.0315,-0.03321 -0.01959,-0.01363 -0.04684,-0.01959 -0.02639,-0.0059 -0.05791,-0.0059 -0.06131,0 -0.135399,0.01959 -0.07409,0.01959 -0.153282,0.05791 v -0.171164 q 0.02725,-0.01448 0.06131,-0.0281 0.03491,-0.01448 0.07494,-0.02555 0.04002,-0.01192 0.08516,-0.01874 0.04598,-0.0076 0.09452,-0.0076 0.07239,0 0.132844,0.01789 0.06046,0.01789 0.103891,0.0528 0.04343,0.03407 0.06727,0.08516 0.0247,0.05024 0.0247,0.116665 z m 0.740863,0.160945 q 0,-0.129437 -0.04769,-0.198414 -0.04769,-0.06983 -0.137102,-0.06983 -0.09027,0 -0.137955,0.06983 -0.04769,0.06898 -0.04769,0.198414 0,0.129439 0.04769,0.199267 0.04769,0.06898 0.137955,0.06898 0.08941,0 0.137102,-0.06898 0.04769,-0.06983 0.04769,-0.199267 z m 0.208633,0 q 0,0.09282 -0.02555,0.172016 -0.0247,0.0792 -0.07409,0.137103 -0.04939,0.05791 -0.123478,0.09112 -0.07324,0.03321 -0.170313,0.03321 -0.09538,0 -0.16861,-0.03321 -0.07324,-0.03322 -0.123477,-0.09112 -0.05024,-0.05791 -0.07664,-0.137103 -0.02555,-0.0792 -0.02555,-0.172016 0,-0.09282 0.02555,-0.172016 0.02639,-0.0792 0.07664,-0.137102 0.05024,-0.05876 0.123477,-0.09112 0.07324,-0.03321 0.16861,-0.03321 0.09708,0 0.170313,0.03321 0.07409,0.03236 0.123478,0.09112 0.04939,0.05791 0.07409,0.137102 0.02555,0.0792 0.02555,0.172016 z m 0.751081,-0.160945 q 0,0.06131 -0.02555,0.114109 -0.0247,0.0528 -0.06898,0.101337 -0.04343,0.04854 -0.103891,0.09537 -0.06046,0.04598 -0.131141,0.09452 v 0.0034 q 0.117515,-0.0068 0.174571,-0.0068 h 0.22311 v 0.171165 h -0.721276 v -0.123478 q 0.08941,-0.06131 0.170312,-0.12007 0.0809,-0.05961 0.141361,-0.113259 0.06131,-0.0545 0.09708,-0.105594 0.03576,-0.05109 0.03576,-0.100485 0,-0.02981 -0.01107,-0.05024 -0.01107,-0.02044 -0.0315,-0.03321 -0.01959,-0.01363 -0.04683,-0.01959 -0.0264,-0.0059 -0.05791,-0.0059 -0.06131,0 -0.135398,0.01959 -0.07409,0.01959 -0.153283,0.05791 v -0.171164 q 0.02725,-0.01448 0.06131,-0.0281 0.03491,-0.01448 0.07494,-0.02555 0.04002,-0.01192 0.08516,-0.01874 0.04598,-0.0076 0.09453,-0.0076 0.07238,0 0.132844,0.01789 0.06046,0.01789 0.10389,0.0528 0.04343,0.03407 0.06727,0.08516 0.0247,0.05024 0.0247,0.116665 z"
         id="path105"
         style="font-weight:bold;font-size:2.17059px;font-family:Corbel;-inkscape-font-specification:'Corbel, Bold';text-align:end;text-anchor:end;stroke-width:2.12551" /><path
         d="m 64.562123,41.498025 q -0.0281,0 -0.05535,-8.84e-4 -0.02725,-8.83e-4 -0.05109,-0.0034 V 41.93911 H 64.24705 v -1.139396 h 0.328704 q 0.0826,0 0.143915,0.0076 0.06216,0.0068 0.110703,0.02129 0.116665,0.03576 0.179681,0.11411 0.06302,0.07835 0.06302,0.199266 0,0.0826 -0.03406,0.149024 -0.03406,0.06557 -0.09963,0.111555 -0.06557,0.04598 -0.160094,0.07068 -0.09452,0.0247 -0.217149,0.0247 z m -0.106445,-0.17968 q 0.01788,0.0026 0.04513,0.0043 0.0281,8.84e-4 0.05791,8.84e-4 0.08431,0 0.141359,-0.01363 0.05706,-0.01363 0.09197,-0.03747 0.03491,-0.0247 0.05024,-0.05876 0.01533,-0.03492 0.01533,-0.07579 0,-0.05024 -0.02299,-0.08686 -0.023,-0.03661 -0.08005,-0.05705 -0.02981,-0.01022 -0.07409,-0.01448 -0.04343,-0.0051 -0.107297,-0.0051 h -0.117516 z m 1.091707,0.481135 q 0.03065,0 0.05791,-0.0076 0.02725,-0.0076 0.05024,-0.01959 0.023,-0.01192 0.04087,-0.0264 0.01874,-0.01448 0.03151,-0.02895 v -0.366173 q -0.03151,-0.03832 -0.07664,-0.06642 -0.04513,-0.02895 -0.09878,-0.02981 -0.03065,0 -0.06472,0.01277 -0.03321,0.01192 -0.06302,0.04343 -0.02981,0.03151 -0.04854,0.08771 -0.01789,0.05535 -0.01789,0.135399 0,0.06217 0.01192,0.111556 0.01192,0.04854 0.03576,0.08345 0.02385,0.03406 0.05876,0.0528 0.03576,0.01788 0.0826,0.01788 z m 0.196712,-0.59269 0.0085,-0.09282 h 0.177126 v 1.221146 h -0.201821 v -0.343181 q 0,-0.03661 8.84e-4,-0.06728 8.83e-4,-0.0315 0.0017,-0.04854 h -0.0017 q -0.01874,0.01533 -0.04343,0.03066 -0.02385,0.01448 -0.0528,0.02725 -0.02896,0.01192 -0.06302,0.01874 -0.03406,0.0076 -0.07238,0.0076 -0.06557,0 -0.128587,-0.023 -0.06216,-0.02385 -0.111556,-0.07409 -0.04854,-0.05109 -0.07835,-0.131142 -0.02895,-0.08005 -0.02895,-0.189899 0,-0.109 0.02981,-0.194157 0.03065,-0.08516 0.0809,-0.14136 0.05024,-0.0562 0.114961,-0.08431 0.06557,-0.02896 0.134547,-0.02896 0.07409,0 0.132845,0.0315 0.05961,0.03066 0.09793,0.08175 z m 0.436853,0.504979 h 0.229072 v 0.227368 H 66.18095 Z m 1.211779,0.227368 h -0.208634 v -0.964825 h -0.367877 v -0.174571 h 0.943536 v 0.174571 h -0.367025 z m 0.737456,-0.174571 h 0.560331 v 0.174571 h -0.768965 v -1.139396 h 0.738309 v 0.174571 h -0.529675 v 0.294642 h 0.454736 v 0.174571 h -0.454736 z m 1.336107,-0.809839 q -0.08516,0 -0.15754,0.02811 -0.07153,0.0281 -0.123477,0.08175 -0.05109,0.05365 -0.08005,0.132844 -0.02895,0.07835 -0.02895,0.179681 0,0.100485 0.0264,0.177126 0.0264,0.07579 0.07579,0.126883 0.04939,0.05109 0.120071,0.07749 0.07153,0.02555 0.161797,0.02555 0.06472,0 0.131993,-0.01022 0.06727,-0.01022 0.126032,-0.02981 v 0.179681 q -0.05961,0.01703 -0.128586,0.02639 -0.06898,0.01022 -0.143064,0.01022 -0.144766,0 -0.254618,-0.04087 -0.109852,-0.04172 -0.183939,-0.116664 -0.07324,-0.07579 -0.110703,-0.180532 -0.03661,-0.105594 -0.03661,-0.232478 0,-0.130289 0.03917,-0.241844 0.04002,-0.111556 0.11411,-0.193306 0.07494,-0.08175 0.186493,-0.128586 0.112408,-0.04684 0.253767,-0.04769 0.07238,0 0.137102,0.01022 0.06472,0.0094 0.116665,0.02725 v 0.177126 q -0.06813,-0.02129 -0.126883,-0.02981 -0.05876,-0.0085 -0.114962,-0.0085 z m 1.058497,0.374688 q 0.122625,0.174571 0.199266,0.309971 h 0.0051 q -0.01022,-0.222259 -0.01022,-0.323595 v -0.51605 h 0.208634 v 1.139396 h -0.21881 l -0.371284,-0.524565 q -0.09793,-0.136251 -0.202672,-0.315931 h -0.0051 q 0.01022,0.209485 0.01022,0.324447 v 0.516049 h -0.208634 v -1.139396 h 0.218853 z m 1.519194,0.04002 q 0,-0.103891 -0.02555,-0.181384 -0.02555,-0.07835 -0.07068,-0.130289 -0.04513,-0.05195 -0.107297,-0.07749 -0.06217,-0.02555 -0.136251,-0.02555 -0.07409,0 -0.13625,0.02555 -0.06217,0.02555 -0.107298,0.07749 -0.04513,0.05194 -0.07068,0.130289 -0.02555,0.07749 -0.02555,0.181384 0,0.10389 0.02555,0.182235 0.02555,0.07749 0.07068,0.129438 0.04513,0.05109 0.107298,0.07749 0.06216,0.02555 0.13625,0.02555 0.07409,0 0.136251,-0.02555 0.06216,-0.0264 0.107297,-0.07749 0.04513,-0.05194 0.07068,-0.129438 0.02555,-0.07835 0.02555,-0.182235 z m 0.215446,0 q 0,0.130289 -0.03747,0.23929 -0.03661,0.108149 -0.108149,0.186493 -0.07068,0.07835 -0.174571,0.121774 -0.103039,0.04343 -0.235032,0.04343 -0.131993,0 -0.235883,-0.04343 -0.10304,-0.04343 -0.174571,-0.121774 -0.07068,-0.07835 -0.108149,-0.186493 -0.03661,-0.109001 -0.03661,-0.23929 0,-0.13029 0.03661,-0.238439 0.03747,-0.109 0.108149,-0.187344 0.07153,-0.07835 0.174571,-0.121774 0.10389,-0.04343 0.235883,-0.04343 0.131993,0 0.235032,0.04343 0.103892,0.04343 0.174571,0.121774 0.07153,0.07835 0.108149,0.187344 0.03747,0.108149 0.03747,0.238439 z m 0.430041,-0.569698 v 0.964824 h 0.53308 v 0.174571 h -0.741714 v -1.139395 z m 1.504717,0.569698 q 0,-0.103891 -0.02555,-0.181384 -0.02555,-0.07835 -0.07068,-0.130289 -0.04513,-0.05195 -0.107298,-0.07749 -0.06216,-0.02555 -0.13625,-0.02555 -0.07409,0 -0.13625,0.02555 -0.06217,0.02555 -0.107297,0.07749 -0.04513,0.05194 -0.07068,0.130289 -0.02555,0.07749 -0.02555,0.181384 0,0.10389 0.02555,0.182235 0.02555,0.07749 0.07068,0.129438 0.04513,0.05109 0.107297,0.07749 0.06216,0.02555 0.13625,0.02555 0.07409,0 0.13625,-0.02555 0.06217,-0.0264 0.107298,-0.07749 0.04513,-0.05194 0.07068,-0.129438 0.02555,-0.07835 0.02555,-0.182235 z m 0.215446,0 q 0,0.130289 -0.03747,0.23929 -0.03661,0.108149 -0.108149,0.186493 -0.07068,0.07835 -0.174571,0.121774 -0.103039,0.04343 -0.235032,0.04343 -0.131993,0 -0.235884,-0.04343 -0.103039,-0.04343 -0.174571,-0.121774 -0.07068,-0.07835 -0.108149,-0.186493 -0.03661,-0.109001 -0.03661,-0.23929 0,-0.13029 0.03661,-0.238439 0.03747,-0.109 0.108149,-0.187344 0.07153,-0.07835 0.174571,-0.121774 0.103891,-0.04343 0.235884,-0.04343 0.131993,0 0.235032,0.04343 0.103892,0.04343 0.174571,0.121774 0.07153,0.07835 0.108149,0.187344 0.03747,0.108149 0.03747,0.238439 z m 0.929911,0.134547 h -0.25547 v -0.174571 h 0.464103 v 0.574807 q -0.02555,0.0094 -0.06557,0.01959 -0.03917,0.01022 -0.08856,0.01788 -0.04854,0.0085 -0.100485,0.01363 -0.05194,0.0051 -0.10304,0.0051 -0.153281,0 -0.268243,-0.04087 -0.114109,-0.04172 -0.19075,-0.116664 -0.07579,-0.07494 -0.11411,-0.177978 -0.03747,-0.103891 -0.03747,-0.229071 0,-0.08856 0.01959,-0.168611 0.02044,-0.0809 0.05876,-0.149023 0.03917,-0.06898 0.09452,-0.124329 0.05535,-0.05535 0.126032,-0.09452 0.07153,-0.03917 0.155837,-0.05961 0.08516,-0.02129 0.182235,-0.02129 0.08601,0 0.163501,0.01277 0.07749,0.01192 0.126883,0.02981 v 0.177125 q -0.06642,-0.02129 -0.134548,-0.03236 -0.06727,-0.01107 -0.13625,-0.01107 -0.09282,0 -0.173719,0.02811 -0.0809,0.02725 -0.140509,0.08175 -0.05876,0.05365 -0.09282,0.132845 -0.03406,0.0792 -0.03406,0.183087 8.83e-4,0.20182 0.105594,0.303157 0.104742,0.100485 0.297196,0.100485 0.03576,0 0.07409,-0.0034 0.03832,-0.0043 0.06728,-0.01022 z m 0.464103,0.43515 v -1.139395 h 0.208634 v 1.139395 z m 1.035504,-0.98441 q -0.08516,0 -0.15754,0.02811 -0.07153,0.0281 -0.123476,0.08175 -0.05109,0.05365 -0.08005,0.132844 -0.02895,0.07835 -0.02895,0.179681 0,0.100485 0.02639,0.177126 0.0264,0.07579 0.07579,0.126883 0.04939,0.05109 0.120071,0.07749 0.07153,0.02555 0.161798,0.02555 0.06472,0 0.131992,-0.01022 0.06728,-0.01022 0.126032,-0.02981 v 0.179681 q -0.05961,0.01703 -0.128587,0.0264 -0.06898,0.01022 -0.143063,0.01022 -0.144766,0 -0.254617,-0.04087 -0.109853,-0.04172 -0.183939,-0.116664 -0.07324,-0.07579 -0.110703,-0.180532 -0.03662,-0.105595 -0.03662,-0.232478 0,-0.130289 0.03917,-0.241844 0.04002,-0.111556 0.11411,-0.193306 0.07494,-0.08175 0.186493,-0.128587 0.112406,-0.04683 0.253766,-0.04769 0.07238,0 0.137102,0.01022 0.06472,0.0094 0.116665,0.02725 v 0.177126 q -0.06813,-0.02129 -0.126883,-0.02981 -0.05876,-0.0085 -0.114962,-0.0085 z m 1.308858,0.414713 q 0,-0.103891 -0.02555,-0.181384 -0.02555,-0.07835 -0.07068,-0.130289 -0.04513,-0.05195 -0.107297,-0.07749 -0.06216,-0.02555 -0.136251,-0.02555 -0.07409,0 -0.13625,0.02555 -0.06217,0.02555 -0.107298,0.07749 -0.04513,0.05194 -0.07068,0.130289 -0.02555,0.07749 -0.02555,0.181384 0,0.10389 0.02555,0.182235 0.02555,0.07749 0.07068,0.129438 0.04513,0.05109 0.107298,0.07749 0.06216,0.02555 0.13625,0.02555 0.07409,0 0.136251,-0.02555 0.06217,-0.0264 0.107297,-0.07749 0.04513,-0.05194 0.07068,-0.129438 0.02555,-0.07835 0.02555,-0.182235 z m 0.215446,0 q 0,0.130289 -0.03747,0.23929 -0.03661,0.108149 -0.108149,0.186493 -0.07068,0.07835 -0.174571,0.121774 -0.103039,0.04343 -0.235032,0.04343 -0.131993,0 -0.235883,-0.04343 -0.10304,-0.04343 -0.174571,-0.121774 -0.07068,-0.07835 -0.108149,-0.186493 -0.03661,-0.109001 -0.03661,-0.23929 0,-0.13029 0.03661,-0.238439 0.03747,-0.109 0.108149,-0.187344 0.07153,-0.07835 0.174571,-0.121774 0.10389,-0.04343 0.235883,-0.04343 0.131993,0 0.235032,0.04343 0.103891,0.04343 0.174571,0.121774 0.07153,0.07835 0.108149,0.187344 0.03747,0.108149 0.03747,0.238439 z m 0.580768,0.569697 v -1.139395 h 0.301454 q 0.04002,0 0.0809,0.0026 0.04172,0.0026 0.0809,0.0076 0.03917,0.0051 0.07579,0.01278 0.03661,0.0068 0.06727,0.01703 0.09112,0.02896 0.160946,0.07835 0.06983,0.04939 0.116665,0.116664 0.04769,0.06727 0.07153,0.150727 0.0247,0.0826 0.0247,0.179681 0,0.09197 -0.02044,0.172868 -0.02044,0.08005 -0.06216,0.146469 -0.04172,0.06642 -0.105593,0.117517 -0.06302,0.05024 -0.149876,0.0826 -0.07238,0.02725 -0.164352,0.04087 -0.09197,0.01363 -0.206931,0.01363 z m 0.294642,-0.174571 q 0.183086,0 0.286126,-0.05024 0.09112,-0.04513 0.137953,-0.131141 0.04684,-0.08601 0.04684,-0.219703 0,-0.06983 -0.01533,-0.126032 -0.01533,-0.0562 -0.04428,-0.09963 -0.02895,-0.04428 -0.07068,-0.07579 -0.04087,-0.0315 -0.09282,-0.05195 -0.04854,-0.01874 -0.108149,-0.02725 -0.05961,-0.0085 -0.133696,-0.0085 h -0.09197 v 0.790253 z m 1.559217,-0.115813 h -0.429189 l -0.111555,0.290384 h -0.222259 l 0.452181,-1.139395 h 0.190752 l 0.452181,1.139395 h -0.220556 z m -0.216297,-0.574806 q -0.05961,0.178829 -0.106447,0.2989 l -0.03917,0.101336 h 0.294642 l -0.03917,-0.101336 q -0.04684,-0.120923 -0.106446,-0.2989 z m 1.296083,0.559479 q 0.03747,-0.134547 0.09282,-0.288681 L 82.1674,40.799738 h 0.292939 v 1.139395 h -0.208633 v -0.577361 q 0,-0.126884 0.01022,-0.294642 h -0.0076 q -0.01448,0.04854 -0.03406,0.109 -0.01959,0.06046 -0.04087,0.119219 l -0.235884,0.643784 h -0.134586 l -0.235884,-0.64378 q -0.02129,-0.05876 -0.04087,-0.119219 -0.01959,-0.06046 -0.03406,-0.109001 h -0.0076 q 0.01022,0.15754 0.01022,0.29379 v 0.578214 h -0.208633 v -1.139396 h 0.291236 l 0.196711,0.542448 q 0.04939,0.135399 0.09282,0.291236 z m 1.063605,-0.36447 h 0.527971 v -0.469213 h 0.208634 v 1.139395 h -0.208634 v -0.495611 h -0.527971 v 0.495611 H 82.73284 v -1.139395 h 0.208633 z m 1.661407,0.379798 h -0.42919 l -0.111555,0.290384 h -0.222259 l 0.452181,-1.139395 h 0.190752 l 0.452181,1.139395 h -0.220556 z m -0.216298,-0.574807 q -0.05961,0.178829 -0.106447,0.2989 l -0.03917,0.101336 h 0.294642 l -0.03917,-0.101336 q -0.04683,-0.120923 -0.106446,-0.2989 z m 1.069566,0.865191 v -1.139395 h 0.208633 v 1.139395 z m 0.481135,0 v -1.139395 h 0.208633 v 1.139395 z"
         id="path106"
         style="font-weight:bold;font-size:2.17059px;font-family:Corbel;-inkscape-font-specification:'Corbel, Bold';text-align:end;text-anchor:end;stroke-width:2.12551" /><path
         d="m 67.548565,43.792145 c 0,-0.02895 -0.0071,-0.05223 -0.02129,-0.06983 -0.01419,-0.01817 -0.0335,-0.03293 -0.05791,-0.04428 -0.02441,-0.01135 -0.05194,-0.02044 -0.0826,-0.02725 -0.03009,-0.0074 -0.06188,-0.01448 -0.09538,-0.02129 -0.04428,-0.0097 -0.08657,-0.02101 -0.126883,-0.03406 -0.04031,-0.01363 -0.07579,-0.03208 -0.106446,-0.05535 -0.03065,-0.02384 -0.05507,-0.05393 -0.07324,-0.09027 -0.01817,-0.03633 -0.02725,-0.08175 -0.02725,-0.136252 0,-0.06018 0.0105,-0.112409 0.0315,-0.156688 0.021,-0.04485 0.04939,-0.08175 0.08516,-0.110703 0.03633,-0.02952 0.07863,-0.05138 0.126883,-0.06557 0.04883,-0.01476 0.103611,-0.02214 0.164353,-0.02214 0.06075,0 0.121775,0.006 0.183086,0.01788 0.06131,0.01193 0.114111,0.02725 0.158392,0.04598 v 0.178829 c -0.05904,-0.02327 -0.115811,-0.04002 -0.170314,-0.05024 -0.05393,-0.01079 -0.104743,-0.01618 -0.15243,-0.01618 -0.06869,0 -0.121774,0.01249 -0.159243,0.03747 -0.0369,0.02498 -0.05535,0.06245 -0.05535,0.112406 0,0.02895 0.006,0.0528 0.01789,0.07153 0.01249,0.01874 0.02924,0.03435 0.05024,0.04684 0.021,0.01192 0.04513,0.02157 0.07238,0.02896 0.02725,0.0074 0.0562,0.01419 0.08686,0.02044 0.04825,0.01022 0.09424,0.02214 0.137954,0.03576 0.04428,0.01306 0.08345,0.03151 0.117516,0.05535 0.03406,0.02384 0.06103,0.05506 0.0809,0.09367 0.01987,0.03804 0.0298,0.08686 0.0298,0.146469 0,0.06131 -0.01135,0.114394 -0.03406,0.159243 -0.02271,0.04485 -0.05507,0.08203 -0.09708,0.111555 -0.04145,0.02895 -0.09197,0.05053 -0.151578,0.06472 -0.05961,0.01419 -0.1249,0.02129 -0.195861,0.02129 -0.06188,0 -0.122909,-0.0062 -0.183086,-0.01874 -0.05961,-0.01192 -0.109281,-0.02895 -0.149024,-0.05109 v -0.176273 c 0.0562,0.02441 0.110984,0.04229 0.164351,0.05365 0.05337,0.01079 0.108435,0.01618 0.165205,0.01618 0.03293,0 0.06529,-0.0025 0.09708,-0.0076 0.03179,-0.0057 0.06018,-0.01503 0.08516,-0.0281 0.02555,-0.01306 0.04598,-0.03066 0.06131,-0.0528 0.01533,-0.02271 0.023,-0.05052 0.023,-0.08345 z m 0.906067,0.23929 h -0.0034 c -0.01135,0.01192 -0.02498,0.02412 -0.04087,0.03661 -0.0159,0.01249 -0.03407,0.02441 -0.0545,0.03576 -0.02044,0.01079 -0.04315,0.01959 -0.06813,0.0264 -0.02498,0.0068 -0.05195,0.01022 -0.0809,0.01022 -0.03917,0 -0.07579,-0.0062 -0.109853,-0.01874 -0.03406,-0.01193 -0.0633,-0.02924 -0.08771,-0.05195 -0.02441,-0.02328 -0.04371,-0.0511 -0.05791,-0.08345 -0.01363,-0.03293 -0.02044,-0.06954 -0.02044,-0.109852 0,-0.04428 0.0079,-0.08402 0.02385,-0.119219 0.01647,-0.0352 0.03918,-0.06501 0.06813,-0.08942 0.02895,-0.02441 0.06358,-0.04286 0.103892,-0.05535 0.04031,-0.01306 0.08487,-0.01959 0.133696,-0.01959 0.03577,0 0.06869,0.0023 0.09878,0.0068 0.03009,0.0045 0.05649,0.0099 0.0792,0.01618 v -0.03321 c 0,-0.01931 -0.0034,-0.03776 -0.01022,-0.05535 -0.0063,-0.01817 -0.01677,-0.03406 -0.0315,-0.04769 -0.01419,-0.01419 -0.03293,-0.02526 -0.0562,-0.03321 -0.02328,-0.0085 -0.05167,-0.01277 -0.08516,-0.01277 -0.04087,0 -0.08175,0.0045 -0.122626,0.01363 -0.04087,0.0091 -0.08516,0.02271 -0.132844,0.04087 v -0.157539 c 0.04144,-0.01817 0.08544,-0.03207 0.131993,-0.04172 0.04655,-0.0097 0.09538,-0.01476 0.146469,-0.01533 0.06018,0 0.112693,0.0074 0.15754,0.02214 0.04542,0.01476 0.08317,0.0352 0.113258,0.06131 0.03065,0.02555 0.05336,0.05592 0.06813,0.09112 0.01533,0.0352 0.023,0.07352 0.023,0.114961 v 0.310822 c 0,0.0545 5.67e-4,0.101336 0.0017,0.140508 0.0011,0.03917 0.0023,0.07409 0.0034,0.104742 h -0.182235 z m -0.01618,-0.263986 c -0.0193,-0.0045 -0.04144,-0.0085 -0.06642,-0.01192 -0.02498,-0.0039 -0.05024,-0.0059 -0.07579,-0.0059 -0.04939,0 -0.08857,0.0099 -0.117516,0.02981 -0.02839,0.01931 -0.04258,0.04911 -0.04258,0.08941 0,0.01874 0.0031,0.0352 0.0094,0.04939 0.0068,0.01363 0.01561,0.02498 0.0264,0.03406 0.01135,0.0091 0.02441,0.0159 0.03917,0.02044 0.01476,0.0045 0.03037,0.0068 0.04683,0.0068 0.02043,0 0.03974,-0.0025 0.05791,-0.0076 0.01817,-0.0057 0.03491,-0.01248 0.05024,-0.02044 0.01533,-0.0085 0.02896,-0.01788 0.04087,-0.0281 0.01249,-0.01022 0.02299,-0.02016 0.0315,-0.02981 z m -0.26739,-0.845605 c 0.02327,0 0.04541,0.004 0.06642,0.01192 0.02101,0.0074 0.04088,0.0159 0.05961,0.02555 0.01987,0.01022 0.03832,0.01959 0.05535,0.02811 0.01703,0.0085 0.03208,0.01277 0.04513,0.01277 0.0159,0 0.02697,-0.0054 0.03321,-0.01618 0.0068,-0.01079 0.01022,-0.02924 0.01022,-0.05535 h 0.133696 c 5.89e-4,0.0074 8.84e-4,0.01788 8.84e-4,0.03151 0,0.01647 -0.0023,0.03634 -0.0068,0.05961 -0.0045,0.02271 -0.01305,0.04286 -0.02555,0.06046 -0.01249,0.0176 -0.02896,0.03151 -0.04939,0.04172 -0.01987,0.01022 -0.04343,0.01533 -0.07068,0.01533 -0.02215,0 -0.044,-0.0037 -0.06557,-0.01107 -0.021,-0.0079 -0.04144,-0.01703 -0.06131,-0.02725 -0.021,-0.01079 -0.04002,-0.02016 -0.05706,-0.02811 -0.01703,-0.0079 -0.03123,-0.01192 -0.04258,-0.01192 -0.0159,0 -0.02725,0.0054 -0.03406,0.01618 -0.0063,0.01079 -0.0094,0.02924 -0.0094,0.05535 h -0.133696 c -5.89e-4,-0.01135 -8.84e-4,-0.01873 -8.84e-4,-0.02214 0,-0.02441 0.002,-0.04712 0.0059,-0.06813 0.0045,-0.02157 0.01305,-0.04144 0.02555,-0.05961 0.01306,-0.01874 0.02952,-0.03322 0.04939,-0.04343 0.02044,-0.01022 0.04428,-0.01533 0.07153,-0.01533 z m 1.273943,0.785144 c 0,-0.04371 -0.0051,-0.08232 -0.01533,-0.115813 -0.01022,-0.03349 -0.02441,-0.0616 -0.04258,-0.08431 -0.01817,-0.02271 -0.04002,-0.03974 -0.06557,-0.05109 -0.02555,-0.01135 -0.05336,-0.01703 -0.08345,-0.01703 -0.02952,0 -0.05705,0.0057 -0.0826,0.01703 -0.02498,0.01135 -0.04655,0.02838 -0.06472,0.05109 -0.01817,0.02271 -0.03236,0.05081 -0.04258,0.08431 -0.01022,0.03349 -0.01533,0.0721 -0.01533,0.115813 0,0.04371 0.0051,0.08232 0.01533,0.115813 0.01022,0.03349 0.02441,0.0616 0.04258,0.08431 0.01874,0.02214 0.0406,0.03917 0.06557,0.05109 0.02555,0.01135 0.05336,0.01703 0.08345,0.01703 0.03009,0 0.05762,-0.0057 0.0826,-0.01703 0.02498,-0.01192 0.04655,-0.02895 0.06472,-0.05109 0.01817,-0.02271 0.03236,-0.05081 0.04258,-0.08431 0.01022,-0.03349 0.01533,-0.0721 0.01533,-0.115813 z m 0.208634,0 c 0,0.06472 -0.0096,0.123762 -0.02895,0.177125 -0.0193,0.05337 -0.04712,0.09907 -0.08345,0.137103 -0.03577,0.03803 -0.0792,0.06755 -0.130289,0.08856 -0.05109,0.02044 -0.108148,0.03066 -0.171165,0.03066 -0.06472,0 -0.12291,-0.01022 -0.174571,-0.03066 -0.05109,-0.021 -0.09452,-0.05052 -0.13029,-0.08856 -0.03577,-0.03803 -0.0633,-0.08373 -0.0826,-0.137103 -0.01874,-0.05337 -0.02811,-0.112408 -0.02811,-0.177125 0,-0.06472 0.0097,-0.123762 0.02895,-0.177126 0.01931,-0.05337 0.04684,-0.09907 0.0826,-0.137102 0.03633,-0.03803 0.08005,-0.06727 0.131141,-0.08771 0.05109,-0.02101 0.108148,-0.03151 0.171164,-0.03151 0.06472,0 0.122627,0.0105 0.17372,0.03151 0.05166,0.02043 0.09537,0.04967 0.131141,0.08771 0.03577,0.03803 0.06302,0.08373 0.08175,0.137102 0.0193,0.05337 0.02895,0.112409 0.02895,0.177126 z m 1.04998,-0.572253 c -0.05677,0 -0.109286,0.0094 -0.157539,0.02811 -0.04769,0.01874 -0.08885,0.04599 -0.123477,0.08175 -0.03406,0.03577 -0.06074,0.08005 -0.08005,0.132844 -0.01931,0.05223 -0.02896,0.112127 -0.02896,0.17968 0,0.06699 0.0088,0.126032 0.0264,0.177126 0.0176,0.05053 0.04286,0.09282 0.07579,0.126883 0.03293,0.03406 0.07295,0.05989 0.120071,0.07749 0.04769,0.01703 0.101619,0.02555 0.161798,0.02555 0.04315,0 0.08714,-0.0034 0.131992,-0.01022 0.04485,-0.0068 0.08686,-0.01675 0.126033,-0.02981 v 0.179681 c -0.03974,0.01135 -0.0826,0.02015 -0.128587,0.0264 -0.04599,0.0068 -0.09367,0.01022 -0.143063,0.01022 -0.09651,0 -0.181383,-0.01362 -0.254618,-0.04087 -0.07324,-0.02781 -0.134548,-0.0667 -0.183938,-0.116665 -0.04883,-0.05053 -0.08573,-0.110704 -0.110704,-0.180532 -0.02441,-0.07039 -0.03661,-0.147888 -0.03661,-0.232477 0,-0.08686 0.01306,-0.167475 0.03917,-0.241845 0.02668,-0.07437 0.06472,-0.138805 0.11411,-0.193305 0.04996,-0.0545 0.112124,-0.09736 0.186493,-0.128587 0.07494,-0.03123 0.159526,-0.04712 0.253766,-0.04769 0.04825,0 0.09395,0.0034 0.137102,0.01022 0.04315,0.0063 0.08203,0.01535 0.116664,0.02725 v 0.177126 c -0.04542,-0.01419 -0.08771,-0.02413 -0.126883,-0.02981 -0.03917,-0.0057 -0.07749,-0.0085 -0.114961,-0.0085 z m 0.924802,0.8967 h -0.0034 c -0.01135,0.01192 -0.02498,0.02412 -0.04087,0.03661 -0.0159,0.01249 -0.03407,0.02441 -0.0545,0.03576 -0.02044,0.01079 -0.04315,0.01959 -0.06813,0.0264 -0.02498,0.0068 -0.05195,0.01022 -0.0809,0.01022 -0.03917,0 -0.07579,-0.0062 -0.109852,-0.01874 -0.03406,-0.01193 -0.0633,-0.02924 -0.08771,-0.05195 -0.02441,-0.02328 -0.04371,-0.0511 -0.05791,-0.08345 -0.01363,-0.03293 -0.02044,-0.06954 -0.02044,-0.109852 0,-0.04428 0.0079,-0.08402 0.02385,-0.119219 0.01647,-0.0352 0.03918,-0.06501 0.06813,-0.08942 0.02895,-0.02441 0.06358,-0.04286 0.103891,-0.05535 0.04031,-0.01306 0.08487,-0.01959 0.133696,-0.01959 0.03577,0 0.06869,0.0023 0.09878,0.0068 0.03009,0.0045 0.05649,0.0099 0.0792,0.01618 v -0.03321 c 0,-0.01931 -0.0034,-0.03776 -0.01022,-0.05535 -0.0063,-0.01817 -0.01677,-0.03406 -0.03151,-0.04769 -0.01419,-0.01419 -0.03293,-0.02526 -0.0562,-0.03321 -0.02328,-0.0085 -0.05167,-0.01277 -0.08516,-0.01277 -0.04087,0 -0.08175,0.0045 -0.122626,0.01363 -0.04087,0.0091 -0.08516,0.02271 -0.132844,0.04087 v -0.157539 c 0.04144,-0.01817 0.08544,-0.03207 0.131992,-0.04172 0.04655,-0.0097 0.09538,-0.01476 0.14647,-0.01533 0.06018,0 0.112693,0.0074 0.15754,0.02214 0.04542,0.01476 0.08317,0.0352 0.113258,0.06131 0.03065,0.02555 0.05336,0.05592 0.06813,0.09112 0.01533,0.0352 0.023,0.07352 0.023,0.114961 v 0.310822 c 0,0.0545 5.67e-4,0.101336 0.0017,0.140508 0.0011,0.03917 0.0023,0.07409 0.0034,0.104742 H 71.63695 Z m -0.01618,-0.263986 c -0.0193,-0.0045 -0.04144,-0.0085 -0.06642,-0.01192 -0.02498,-0.0039 -0.05024,-0.0059 -0.07579,-0.0059 -0.04939,0 -0.08857,0.0099 -0.117515,0.02981 -0.02839,0.01931 -0.04258,0.04911 -0.04258,0.08941 0,0.01874 0.0031,0.0352 0.0094,0.04939 0.0068,0.01363 0.01561,0.02498 0.0264,0.03406 0.01135,0.0091 0.02441,0.0159 0.03917,0.02044 0.01476,0.0045 0.03037,0.0068 0.04684,0.0068 0.02044,0 0.03974,-0.0025 0.05791,-0.0076 0.01817,-0.0057 0.03491,-0.01248 0.05024,-0.02044 0.01533,-0.0085 0.02896,-0.01788 0.04087,-0.0281 0.01249,-0.01022 0.02299,-0.02016 0.0315,-0.02981 z m 0.91884,-0.313376 h -0.01703 c -0.06188,0 -0.11638,0.0094 -0.1635,0.02811 -0.04655,0.01817 -0.0826,0.04627 -0.108149,0.0843 v 0.552667 h -0.201819 v -0.825171 h 0.166907 l 0.01874,0.11496 h 0.0034 c 0.02384,-0.04201 0.05648,-0.07494 0.09793,-0.09878 0.04201,-0.02441 0.09226,-0.03661 0.150727,-0.03661 0.02044,0 0.03804,0.0011 0.0528,0.0034 z m 0.127735,0.665073 v -1.233068 h 0.201821 v 1.233068 z m 1.009957,-0.412158 c 0,-0.04371 -0.0051,-0.08232 -0.01533,-0.115813 -0.01022,-0.03349 -0.02441,-0.0616 -0.04258,-0.08431 -0.01817,-0.02271 -0.04002,-0.03974 -0.06557,-0.05109 -0.02555,-0.01135 -0.05336,-0.01703 -0.08345,-0.01703 -0.02952,0 -0.05705,0.0057 -0.0826,0.01703 -0.02498,0.01135 -0.04655,0.02838 -0.06472,0.05109 -0.01817,0.02271 -0.03236,0.05081 -0.04258,0.08431 -0.01022,0.03349 -0.01533,0.0721 -0.01533,0.115813 0,0.04371 0.0051,0.08232 0.01533,0.115813 0.01022,0.03349 0.02441,0.0616 0.04258,0.08431 0.01874,0.02214 0.0406,0.03917 0.06557,0.05109 0.02555,0.01135 0.05336,0.01703 0.08345,0.01703 0.03009,0 0.05762,-0.0057 0.0826,-0.01703 0.02498,-0.01192 0.04655,-0.02895 0.06472,-0.05109 0.01817,-0.02271 0.03236,-0.05081 0.04258,-0.08431 0.01022,-0.03349 0.01533,-0.0721 0.01533,-0.115813 z m 0.208633,0 c 0,0.06472 -0.0097,0.123762 -0.02896,0.177125 -0.0193,0.05337 -0.04712,0.09907 -0.08345,0.137103 -0.03577,0.03803 -0.0792,0.06755 -0.130289,0.08856 -0.05109,0.02044 -0.108149,0.03066 -0.171166,0.03066 -0.06472,0 -0.12291,-0.01022 -0.174571,-0.03066 -0.05109,-0.021 -0.09452,-0.05052 -0.130289,-0.08856 -0.03577,-0.03803 -0.0633,-0.08373 -0.0826,-0.137103 -0.01873,-0.05337 -0.0281,-0.112408 -0.0281,-0.177125 0,-0.06472 0.0097,-0.123762 0.02896,-0.177126 0.0193,-0.05337 0.04683,-0.09907 0.0826,-0.137102 0.03633,-0.03803 0.08005,-0.06727 0.131141,-0.08771 0.05109,-0.02101 0.108148,-0.03151 0.171165,-0.03151 0.06472,0 0.122626,0.0105 0.173719,0.03151 0.05166,0.02043 0.09537,0.04967 0.131141,0.08771 0.03577,0.03803 0.06302,0.08373 0.08175,0.137102 0.01931,0.05337 0.02896,0.112409 0.02896,0.177126 z m 0.544152,0.172868 c 0,-0.0176 -0.0051,-0.03208 -0.01533,-0.04343 -0.0097,-0.01135 -0.02271,-0.02072 -0.03917,-0.0281 -0.01647,-0.0079 -0.03548,-0.01476 -0.05705,-0.02044 -0.021,-0.0057 -0.04314,-0.01134 -0.06642,-0.01703 -0.02952,-0.0079 -0.05791,-0.01703 -0.08516,-0.02725 -0.02725,-0.01079 -0.05138,-0.02469 -0.07239,-0.04172 -0.02044,-0.01703 -0.0369,-0.03832 -0.04939,-0.06387 -0.01193,-0.02611 -0.01789,-0.05791 -0.01789,-0.09538 0,-0.04599 0.0082,-0.08573 0.0247,-0.119219 0.01647,-0.03406 0.03861,-0.06216 0.06642,-0.08431 0.02839,-0.02214 0.06103,-0.0386 0.09793,-0.04939 0.03747,-0.01079 0.07692,-0.01618 0.118368,-0.01618 0.05053,0 0.09793,0.0043 0.142211,0.01277 0.04428,0.0079 0.0843,0.01845 0.120071,0.03151 v 0.164352 c -0.01874,-0.0063 -0.03861,-0.01194 -0.05961,-0.01703 -0.02044,-0.0057 -0.04145,-0.01049 -0.06302,-0.01448 -0.021,-0.0039 -0.04201,-0.0071 -0.06302,-0.0094 -0.021,-0.0029 -0.04087,-0.0043 -0.05961,-0.0043 -0.02384,0 -0.04399,0.0023 -0.06046,0.0068 -0.01647,0.0045 -0.02981,0.01078 -0.04002,0.01874 -0.01022,0.0074 -0.0176,0.01618 -0.02214,0.0264 -0.0045,0.0097 -0.0068,0.01987 -0.0068,0.03065 0,0.01874 0.0048,0.03407 0.01448,0.04598 0.01022,0.01192 0.02413,0.02157 0.04172,0.02896 0.0176,0.0074 0.03605,0.01363 0.05535,0.01874 0.0193,0.0045 0.03803,0.0091 0.0562,0.01363 0.02839,0.0068 0.05677,0.01505 0.08516,0.0247 0.02839,0.0097 0.05393,0.02328 0.07664,0.04087 0.02271,0.01703 0.04116,0.03946 0.05535,0.06727 0.01476,0.02725 0.02214,0.06216 0.02214,0.104743 0,0.04655 -0.0088,0.08714 -0.0264,0.121773 -0.01759,0.03463 -0.04229,0.06358 -0.07409,0.08686 -0.03122,0.02271 -0.06897,0.03945 -0.113259,0.05024 -0.04371,0.01135 -0.09197,0.01703 -0.144766,0.01703 -0.05223,0 -0.09935,-0.0043 -0.14136,-0.01278 -0.04144,-0.0079 -0.07579,-0.01817 -0.103039,-0.03066 v -0.162649 c 0.04428,0.01647 0.08516,0.02782 0.122626,0.03406 0.03747,0.0057 0.07238,0.0085 0.104742,0.0085 0.02498,0 0.04826,-0.0017 0.06983,-0.0051 0.02157,-0.0039 0.04002,-0.0099 0.05535,-0.01789 0.0159,-0.0079 0.02839,-0.01788 0.03747,-0.02981 0.0091,-0.01249 0.01363,-0.02725 0.01363,-0.04428 z m 0.724682,-0.278463 h 0.375541 V 43.78448 H 75.14624 Z m 1.491092,0.190752 c 0,-0.02895 -0.0071,-0.05223 -0.02129,-0.06983 -0.01419,-0.01817 -0.0335,-0.03293 -0.05791,-0.04428 -0.02441,-0.01135 -0.05194,-0.02044 -0.0826,-0.02725 -0.03009,-0.0074 -0.06188,-0.01448 -0.09537,-0.02129 -0.04428,-0.0097 -0.08657,-0.02101 -0.126884,-0.03406 -0.04031,-0.01363 -0.07579,-0.03208 -0.106445,-0.05535 -0.03065,-0.02384 -0.05507,-0.05393 -0.07324,-0.09027 -0.01817,-0.03633 -0.02725,-0.08175 -0.02725,-0.136252 0,-0.06018 0.0105,-0.112409 0.0315,-0.156688 0.021,-0.04485 0.04939,-0.08175 0.08516,-0.110703 0.03633,-0.02952 0.07863,-0.05138 0.126883,-0.06557 0.04883,-0.01476 0.103611,-0.02214 0.164353,-0.02214 0.06075,0 0.121775,0.006 0.183086,0.01788 0.06131,0.01193 0.11411,0.02725 0.158391,0.04598 v 0.178829 c -0.05904,-0.02327 -0.115811,-0.04002 -0.170313,-0.05024 -0.05393,-0.01079 -0.104744,-0.01618 -0.152431,-0.01618 -0.06869,0 -0.121773,0.01249 -0.159242,0.03747 -0.0369,0.02498 -0.05535,0.06245 -0.05535,0.112406 0,0.02895 0.006,0.0528 0.01789,0.07153 0.01249,0.01874 0.02924,0.03435 0.05024,0.04684 0.021,0.01192 0.04513,0.02157 0.07238,0.02896 0.02725,0.0074 0.0562,0.01419 0.08686,0.02044 0.04825,0.01022 0.09424,0.02214 0.137954,0.03576 0.04428,0.01306 0.08345,0.03151 0.117516,0.05535 0.03406,0.02384 0.06103,0.05506 0.0809,0.09367 0.01987,0.03804 0.02981,0.08686 0.02981,0.146469 0,0.06131 -0.01135,0.114394 -0.03406,0.159243 -0.02271,0.04485 -0.05507,0.08203 -0.09708,0.111555 -0.04145,0.02895 -0.09197,0.05053 -0.151579,0.06472 -0.05961,0.01419 -0.1249,0.02129 -0.19586,0.02129 -0.06188,0 -0.122909,-0.0062 -0.183087,-0.01874 -0.05961,-0.01192 -0.109288,-0.02895 -0.149024,-0.05109 v -0.176273 c 0.05621,0.02441 0.110991,0.04229 0.164352,0.05365 0.05337,0.01079 0.108435,0.01618 0.165204,0.01618 0.03293,0 0.06529,-0.0025 0.09708,-0.0076 0.03179,-0.0057 0.06018,-0.01503 0.08516,-0.0281 0.02555,-0.01306 0.04598,-0.03066 0.06131,-0.0528 0.01533,-0.02271 0.023,-0.05052 0.023,-0.08345 z m 0.761301,-0.11411 c -0.01874,0 -0.03719,-2.95e-4 -0.05535,-8.84e-4 -0.01817,-5.89e-4 -0.0352,-0.0017 -0.05109,-0.0034 v 0.44537 h -0.208634 v -1.139395 h 0.328705 c 0.05507,0 0.103038,0.0025 0.143914,0.0076 0.04144,0.0045 0.07834,0.01163 0.110704,0.02129 0.07778,0.02384 0.137669,0.06188 0.17968,0.11411 0.04201,0.05223 0.06302,0.118656 0.06302,0.199267 0,0.05507 -0.01135,0.104741 -0.03406,0.149024 -0.02271,0.04371 -0.05592,0.0809 -0.09963,0.111555 -0.04371,0.03065 -0.09708,0.05421 -0.160094,0.07068 -0.06301,0.01647 -0.135397,0.0247 -0.21715,0.0247 z m -0.106446,-0.179681 c 0.01192,0.0017 0.02696,0.0032 0.04513,0.0043 0.01874,5.89e-4 0.03804,8.84e-4 0.05791,8.84e-4 0.0562,0 0.10332,-0.0045 0.14136,-0.01363 0.03803,-0.0091 0.06869,-0.02158 0.09197,-0.03747 0.02327,-0.01647 0.04002,-0.03605 0.05024,-0.05876 0.01022,-0.02327 0.01533,-0.04854 0.01533,-0.07579 0,-0.03349 -0.0077,-0.06245 -0.023,-0.08686 -0.01533,-0.02441 -0.04201,-0.04342 -0.08005,-0.05705 -0.01987,-0.0068 -0.04456,-0.01164 -0.07409,-0.01448 -0.02895,-0.0034 -0.06472,-0.0051 -0.107297,-0.0051 h -0.117516 z m 0.665925,0.393424 h 0.235884 l -0.183938,0.577361 h -0.215447 z"
         id="path107"
         style="font-weight:bold;font-size:2.17059px;font-family:Corbel;-inkscape-font-specification:'Corbel, Bold';text-align:end;text-anchor:end;stroke-width:2.12551"
         sodipodi:nodetypes="scsccccsscccsscccscsccsccscsscssccccscccssccscsscccscscsscscccssccsccccssscccccscsccsscccccsccsscccscscscssscccscccssssssscssssccsccssssccscscssccscscssccccscscsscccscccscccccccsccccscsscccscscsscscccssccsccccssscccccscsccssccccccscccccccccscccccccssssscssssccsccssssccscscssccscscssccccccccscccsccccccssccscsccsccssccsccccsccccccccccscsccccsscccsscccscsccsccscsscssccccscccsscsccccsccsscssccccssccssccsccccccc" /><text
         xml:space="preserve"
         style="font-style:normal;font-variant:normal;font-weight:bold;font-stretch:normal;font-size:3.01976px;font-family:Corbel;-inkscape-font-specification:'Corbel, Bold';font-variant-ligatures:normal;font-variant-caps:normal;font-variant-numeric:normal;font-variant-east-asian:normal;text-align:start;writing-mode:lr-tb;direction:ltr;text-anchor:start;display:inline;fill:#000000;fill-opacity:1;stroke:none;stroke-width:3.68034"
         x="3.6000001"
         y="44.171928"
         id="text6-5"
         inkscape:label="text6"><tspan
           sodipodi:role="line"
           id="tspan26"
           x="3.6000001"
           y="44.171928"
           style="stroke-width:3.68034">www.aumaf3d.com.br/</tspan></text><text
         xml:space="preserve"
         style="font-style:normal;font-variant:normal;font-weight:normal;font-stretch:normal;font-size:2.76295px;font-family:Bahnschrift;-inkscape-font-specification:'Bahnschrift, Normal';font-variant-ligatures:normal;font-variant-caps:normal;font-variant-numeric:normal;font-variant-east-asian:normal;text-align:start;writing-mode:lr-tb;direction:ltr;text-anchor:start;display:inline;fill:#000000;fill-opacity:1;stroke:none;stroke-width:3.36736"
         x="62.034184"
         y="12.037315"
         id="text6-5-1"
         inkscape:label="text6"
         transform="scale(1.0929459,0.9149584)"><tspan
           sodipodi:role="line"
           id="tspan109"
           x="62.034184"
           y="12.037315"
           style="stroke-width:3.36736">(16)992188425</tspan></text><text
         xml:space="preserve"
         style="font-style:normal;font-variant:normal;font-weight:bold;font-stretch:normal;font-size:1.59802px;font-family:'Microsoft PhagsPa';-inkscape-font-specification:'Microsoft PhagsPa, Bold';font-variant-ligatures:normal;font-variant-caps:normal;font-variant-numeric:normal;font-variant-east-asian:normal;text-align:start;writing-mode:lr-tb;direction:ltr;text-anchor:start;display:inline;fill:#000000;fill-opacity:1;stroke:none;stroke-width:1.9476"
         x="80.217361"
         y="43.193722"
         id="text6-5-1-3"
         inkscape:label="text6"
         transform="scale(0.97829619,1.0221853)"><tspan
           sodipodi:role="line"
           id="tspan110"
           x="80.217361"
           y="43.193722"
           style="stroke-width:1.9476">13565-261</tspan><tspan
           sodipodi:role="line"
           id="tspan111"
           x="80.217361"
           y="45.191246"
           style="stroke-width:1.9476"></tspan></text><text
         xml:space="preserve"
         style="font-style:normal;font-variant:normal;font-weight:bold;font-stretch:normal;font-size:4.17012px;font-family:Corbel;-inkscape-font-specification:'Corbel Bold';text-align:start;writing-mode:lr-tb;direction:ltr;text-anchor:start;display:inline;fill:#000000;fill-opacity:1;stroke:none;stroke-width:2.90419"
         x="3.5816023"
         y="8.3259773"
         id="text5"
         transform="scale(0.92510859,1.0809542)"><tspan
           sodipodi:role="line"
           id="tspan5"
           style="font-style:normal;font-variant:normal;font-weight:bold;font-stretch:normal;font-size:4.17012px;font-family:Corbel;-inkscape-font-specification:'Corbel Bold';fill:#000000;fill-opacity:1;stroke:none;stroke-width:2.90419"
           x="3.5816023"
           y="8.3259773">NIELDSON MARTINS</tspan></text></g></g><g
     inkscape:groupmode="layer"
     id="layer2"
     inkscape:label="Layer 2" /></svg>
